<svg id="Layer_1" xmlns="http://www.w3.org/2000/svg" xmlns:xlink="http://www.w3.org/1999/xlink" viewBox="0 0 1372.7 1118.4"><style>.st0{fill:#fff}.st1{fill:none;stroke:#0b0c0c;stroke-width:4;stroke-linecap:square;stroke-miterlimit:10}.st2{fill:#0b0c0c}.st3{font-family:&apos;GDSTransportWebsite-Bold&apos;}.st4{font-size:12px}.st5{fill:#006435}.st6{fill:none;stroke:#6f777b;stroke-linecap:square;stroke-miterlimit:10}.st7{fill:#28a096}.st8{fill:none;stroke:#6f777b;stroke-width:5;stroke-linecap:square;stroke-miterlimit:10}.st9{fill:#b20d17}.st11{fill:none}.st13,.st14{fill:none;stroke:#095ca6;stroke-width:5;stroke-linecap:square;stroke-miterlimit:10}.st14{stroke:#000;stroke-width:4}.st17{fill:#095ca6}.st34{font-family:&apos;HelveticaNeue&apos;}.st38{fill:#bec0c2}.st55{font-size:20px}</style><path class="st0" d="M402 60.6h160v220H402v-220z"/><path class="st1" d="M402 60.6h160v220H402v-220z"/><path class="st2" d="M402 60.6h160v30H402v-30z"/><text transform="translate(407 78.94)" class="st0 st3 st4">ADMIN</text><text transform="translate(412 107.94)" class="st3 st4">Form page</text><path class="st5" d="M412 230.6h80v25h-80v-25z"/><text transform="translate(427.02 246.44)" class="st0 st3 st4">Continue</text><path class="st0" d="M412 120.6h110v15H412v-15z"/><path class="st6" d="M412 120.6h110v15H412v-15z"/><path class="st0" d="M412 140.6h110v40H412v-40z"/><path class="st6" d="M412 140.6h110v40H412v-40z"/><path class="st0" d="M412 185.6h110v15H412v-15z"/><path class="st6" d="M412 185.6h110v15H412v-15z"/><path class="st0" d="M412 205.6h110v15H412v-15z"/><path class="st6" d="M412 205.6h110v15H412v-15z"/><path class="st0" d="M2 320.6h160v220H2v-220z"/><path class="st1" d="M2 320.6h160v220H2v-220z"/><path class="st7" d="M12 360.6h120v70H12v-70z"/><text transform="translate(36.18 390.28)" class="st0 st3 st4">Confirm</text><text transform="translate(80.22 390.28)" class="st0 st3 st4">a</text><text transform="translate(86.17 390.28)" class="st0 st3 st4">tion</text><text transform="translate(58.66 407.59)" class="st0 st3 st4">page</text><path class="st8" d="M12 440.6h120M12 451.9h85.7M12 463.3h120M12 474.6h85.7"/><path d="M2 320.6h160v30H2v-30z"/><text transform="translate(7 338.94)" class="st0 st3 st4">ADMIN</text><path class="st0" d="M202 320.6h160v220H202v-220z"/><path class="st1" d="M202 320.6h160v220H202v-220z"/><path class="st9" d="M212 360.6h120v70H212v-70z"/><text transform="translate(230.6 398.94)" class="st0 st3 st4">Erro</text><text transform="translate(253.81 398.94)" class="st0 st3 st4">r</text><text transform="translate(258.09 398.94)" class="st0 st3 st4"></text><text transform="translate(259.99 398.94)" class="st0 st3 st4">valid</text><text transform="translate(285.82 398.94)" class="st0 st3 st4">a</text><text transform="translate(291.78 398.94)" class="st0 st3 st4">tion</text><path class="st8" d="M213.3 440.6h119.1m-119.1 11.3h85m-85 11.4h119.1m-119.1 11.3h85"/><path class="st2" d="M202 320.6h160v30H202v-30z"/><text transform="translate(207 338.94)" class="st0 st3 st4">ADMIN</text><path class="st0" d="M402 580.6h160v220H402v-220z"/><path class="st1" d="M402 580.6h160v220H402v-220z"/><path d="M402 580.6h160v30H402v-30z"/><defs><path id="SVGID_1_" d="M402 580.6h97.7v30H402z"/></defs><clipPath id="SVGID_2_"><use xlink:href="#SVGID_1_" overflow="visible"/></clipPath><g clip-path="url(#SVGID_2_)"><path class="st0" d="M475.3 600.5h2v-3l1.3-1.4 2.6 4.4h2.3l-3.7-6 3.4-3.9h-2.5l-3.5 4.3v-4.3h-2l.1 9.9z"/></g><path class="st11" d="M402 580.6h97.7v30H402v-30z"/><defs><path id="SVGID_3_" d="M402 580.6h97.6v30H402z"/></defs><clipPath id="SVGID_4_"><use xlink:href="#SVGID_3_" overflow="visible"/></clipPath><g clip-path="url(#SVGID_4_)"><path class="st0" d="M468.5 598.7c-.2-.1-.5-.2-.7-.4-.2-.2-.3-.4-.4-.7-.1-.3-.2-.6-.2-.9v-6.1h-2v6.4c0 .5.1 1 .3 1.5.2.4.5.8.8 1.1.4.3.8.6 1.3.7.5.2 1.1.3 1.6.2.6 0 1.1-.1 1.6-.2.5-.2.9-.4 1.3-.7.4-.3.6-.7.8-1.1.2-.5.3-1 .3-1.5v-6.4h-2v6.1c0 .3 0 .6-.2.9-.1.3-.2.5-.4.7-.2.2-.4.3-.6.4-.3.1-.5.1-.8.1-.3 0-.5 0-.7-.1m-7.3 1.2c.1.2.2.3.3.4.1.1.3.2.4.3.2.1.3.1.5.1.3 0 .6-.1.9-.4.1-.1.2-.3.3-.4.1-.2.1-.3.1-.5s0-.3-.1-.5-.2-.3-.3-.4c-.2-.2-.5-.4-.9-.4-.2 0-.3 0-.5.1-.1.1-.3.2-.4.3-.1.1-.2.2-.3.4-.1.1-.1.3-.1.5s.1.3.1.5M458.1 600.5l2.8-9.9h-2.2l-1.9 7.4h-.1l-1.9-7.4h-2.2l2.8 9.9h2.7zM445.1 590.9c-.6.3-1.1.6-1.5 1.1-.4.5-.7 1-.9 1.6-.4 1.3-.4 2.7 0 4 .2.6.5 1.1.9 1.6s.9.8 1.5 1.1c.6.3 1.3.4 2 .4s1.4-.1 2-.4c.6-.3 1.1-.6 1.5-1.1.4-.5.7-1 .9-1.6.4-1.3.4-2.7 0-4-.2-.6-.5-1.1-.9-1.6s-.9-.8-1.5-1.1c-.6-.3-1.3-.4-2-.4s-1.4.1-2 .4m.8 7.7c-.3-.2-.6-.4-.8-.7-.2-.3-.4-.6-.5-1-.1-.4-.2-.9-.2-1.3v-.1c0-.4.1-.9.2-1.3s.3-.7.5-1c.2-.3.5-.5.8-.7.4-.2.8-.3 1.2-.2.4 0 .8.1 1.1.2.3.2.6.4.8.7.2.3.4.6.5 1 .1.4.2.9.2 1.3v.1c0 .4-.1.9-.2 1.3s-.3.7-.5 1c-.2.3-.5.5-.8.7-.4.2-.7.2-1.1.2-.4 0-.8 0-1.2-.2m-11.8-3.1c0-.4.1-.8.2-1.2.1-.4.3-.7.5-1 .2-.3.5-.5.8-.7.4-.2.8-.3 1.2-.3.3 0 .5 0 .8.1l.6.3c.2.1.3.3.5.5.1.2.3.4.4.6l1.8-1c-.2-.4-.4-.7-.7-1-.3-.3-.6-.5-.9-.7-.4-.2-.8-.4-1.2-.5-.4-.1-.9-.2-1.3-.2-.7 0-1.4.1-2 .4-.6.3-1.1.6-1.5 1.1-.4.5-.8 1-1 1.6-.2.6-.3 1.3-.3 2s.1 1.4.3 2c.2.6.5 1.1.9 1.6s.9.8 1.4 1.1c.6.3 1.3.4 1.9.4.3 0 .6 0 .9-.1.3-.1.5-.1.8-.3.2-.1.4-.2.6-.4l.5-.5v1.2h1.8v-5.4h-4.5v1.5h2.5v.1c0 .2 0 .5-.1.7-.1.3-.2.5-.4.7-.2.2-.4.4-.7.5-.4.2-.7.2-1.1.2-.4 0-.8-.1-1.2-.3-.3-.2-.6-.4-.8-.7-.2-.3-.4-.6-.5-1-.2-.4-.3-.8-.2-1.3zm-20.9-2.9c.4.2 1 0 1.1-.5.2-.4 0-1-.5-1.1s-1 0-1.1.5c-.1.4.1.9.5 1.1m-2 1.2c.4.2 1 0 1.1-.5.2-.4 0-1-.5-1.1-.4-.2-1 0-1.1.5-.1.4.1.9.5 1.1m-.6 2.2c.4.2 1 0 1.1-.5.2-.4 0-.9-.4-1.1-.4-.2-1 0-1.1.5-.2.4 0 .9.4 1.1m4.8-2.7c.4.2 1 0 1.1-.5.2-.4 0-1-.5-1.1-.4-.2-1 0-1.1.5-.1.4.1.9.5 1.1m8-.7c-.4.2-.9 0-1.1-.4-.2-.4 0-1 .5-1.1.4-.2 1 0 1.1.5.1.3-.1.8-.5 1m1.9 1.2c-.4.2-1 0-1.1-.5-.2-.4 0-1 .5-1.1.4-.2 1 0 1.1.5.2.4 0 .9-.5 1.1m.6 2.2c-.4.2-1 0-1.1-.5-.2-.4 0-1 .5-1.1.4-.2 1 0 1.1.5.1.4-.1.9-.5 1.1m-4.7-2.7c-.4.2-1 0-1.1-.5-.2-.4 0-1 .5-1.1.4-.2 1 0 1.1.5.1.4-.1.9-.5 1.1m-2.5-2.2l1.1.6V590l-1.1.3-.1-.1.4-1.4h-1.6l.5 1.4-.1.1-1.1-.3v1.6l1.1-.6.1.1-.6 1.9v.3c0 .5.4.9.9 1h.3c.5-.1.9-.5.9-1v-.3l-.7-1.9c.1 0 .1 0 0 0m-.4 9.3c1.9 0 3.9.1 5.8.4.3-1.5.9-2.9 1.7-4.2l-1.2-.4c.1.4.1.9 0 1.3-.3-.3-.4-.7-.5-1.1l-.6 1.9c.3-.2.6-.4.9-.4-.5 1.2-1.2 1.5-1.7 1.4-.5-.1-.8-.5-.7-.9v-.1c.1-.6.7-.7 1-.1.5-1.1-.4-1.4-1-1.1.8-.6 1-1.6.4-2.4 0-.1-.1-.1-.2-.2-.9.6-1.1 1.7-.6 2.6-.6-.7-1.5-.3-1.2.8.4-.7 1-.2.9.4s-.8 1-1.7.9c-1.3-.1-1.3-1-1.4-1.7.3-.1.9.2 1.4.9l.2-2c-.4.4-.9.7-1.5.7.3-.5.6-1 1-1.4H417c.4.4.7.9 1 1.4-.6 0-1.1-.2-1.5-.7l.2 2c.5-.7 1-1 1.4-.9 0 .7-.1 1.6-1.4 1.7-.9.1-1.6-.3-1.7-.9s.5-1 .9-.4c.3-1.1-.6-1.4-1.2-.8.6-.9.3-2-.5-2.6-.7.7-.6 1.8.1 2.5.1.1.1.1.2.1-.6-.3-1.5 0-1 1.1.3-.7.9-.5 1 .1.1.4-.2.9-.6 1h-.1c-.4.1-1.1-.2-1.7-1.4.3 0 .7.2.9.4l-.6-1.9c-.1.4-.3.8-.5 1.1-.1-.4-.1-.9 0-1.3l-1.2.4c.9 1.3 1.5 2.7 1.7 4.2 2-.3 3.9-.4 5.9-.4"/></g><path class="st11" d="M402 580.6h97.7v30H402v-30z"/><path class="st13" d="M542 643h-77.6m55.4 11.4h-55.5m77.7 11.3h-77.6m55.4 11.4h-55.5m55.5 17h-55.5m77.7 11.3h-77.6m55.4 11.3h-55.5m77.7 11.4h-77.6"/><path class="st8" d="M447.4 643h-34m34 51.1h-34"/><path class="st13" d="M519.8 779.1h-55.5m77.7-11.3h-77.6m55.4-11.4h-55.5m77.7-11.3h-77.6"/><path class="st8" d="M447.4 745.1h-34"/><text transform="translate(412 627.94)" class="st3 st4">List page</text><path class="st0" d="M602 580.6h160v220H602v-220z"/><path class="st14" d="M602 580.6h160v220H602v-220z"/><path d="M602 580.6h160v30H602v-30z"/><defs><path id="SVGID_5_" d="M602 580.6h97.7v30H602z"/></defs><clipPath id="SVGID_6_"><use xlink:href="#SVGID_5_" overflow="visible"/></clipPath><g clip-path="url(#SVGID_6_)"><path class="st0" d="M675.3 600.5h2v-3l1.3-1.4 2.6 4.4h2.3l-3.7-6 3.4-3.9h-2.5l-3.5 4.3v-4.3h-2l.1 9.9z"/></g><path class="st11" d="M602 580.6h97.7v30H602v-30z"/><defs><path id="SVGID_7_" d="M602 580.6h97.6v30H602z"/></defs><clipPath id="SVGID_8_"><use xlink:href="#SVGID_7_" overflow="visible"/></clipPath><g clip-path="url(#SVGID_8_)"><path class="st0" d="M668.5 598.7c-.2-.1-.5-.2-.7-.4-.2-.2-.3-.4-.4-.7-.1-.3-.2-.6-.2-.9v-6.1h-2v6.4c0 .5.1 1 .3 1.5.2.4.5.8.8 1.1.4.3.8.6 1.3.7.5.2 1.1.3 1.6.2.6 0 1.1-.1 1.6-.2.5-.2.9-.4 1.3-.7.4-.3.6-.7.8-1.1.2-.5.3-1 .3-1.5v-6.4h-2v6.1c0 .3 0 .6-.2.9-.1.3-.2.5-.4.7-.2.2-.4.3-.6.4-.3.1-.5.1-.8.1-.3 0-.5 0-.7-.1m-7.3 1.2c.1.2.2.3.3.4.1.1.3.2.4.3.2.1.3.1.5.1.3 0 .6-.1.9-.4.1-.1.2-.3.3-.4.1-.2.1-.3.1-.5s0-.3-.1-.5-.2-.3-.3-.4c-.2-.2-.5-.4-.9-.4-.2 0-.3 0-.5.1-.1.1-.3.2-.4.3-.1.1-.2.2-.3.4-.1.1-.1.3-.1.5s.1.3.1.5M658.1 600.5l2.8-9.9h-2.2l-1.9 7.4h-.1l-1.9-7.4h-2.2l2.8 9.9h2.7zM645.1 590.9c-.6.3-1.1.6-1.5 1.1-.4.5-.7 1-.9 1.6-.4 1.3-.4 2.7 0 4 .2.6.5 1.1.9 1.6s.9.8 1.5 1.1c.6.3 1.3.4 2 .4s1.4-.1 2-.4c.6-.3 1.1-.6 1.5-1.1.4-.5.7-1 .9-1.6.4-1.3.4-2.7 0-4-.2-.6-.5-1.1-.9-1.6s-.9-.8-1.5-1.1c-.6-.3-1.3-.4-2-.4s-1.4.1-2 .4m.8 7.7c-.3-.2-.6-.4-.8-.7-.2-.3-.4-.6-.5-1-.1-.4-.2-.9-.2-1.3v-.1c0-.4.1-.9.2-1.3s.3-.7.5-1c.2-.3.5-.5.8-.7.4-.2.8-.3 1.2-.2.4 0 .8.1 1.1.2.3.2.6.4.8.7.2.3.4.6.5 1 .1.4.2.9.2 1.3v.1c0 .4-.1.9-.2 1.3s-.3.7-.5 1c-.2.3-.5.5-.8.7-.4.2-.7.2-1.1.2-.4 0-.8 0-1.2-.2m-11.8-3.1c0-.4.1-.8.2-1.2.1-.4.3-.7.5-1 .2-.3.5-.5.8-.7.4-.2.8-.3 1.2-.3.3 0 .5 0 .8.1l.6.3c.2.1.3.3.5.5.1.2.3.4.4.6l1.8-1c-.2-.4-.4-.7-.7-1-.3-.3-.6-.5-.9-.7-.4-.2-.8-.4-1.2-.5-.4-.1-.9-.2-1.3-.2-.7 0-1.4.1-2 .4-.6.3-1.1.6-1.5 1.1-.4.5-.8 1-1 1.6-.2.6-.3 1.3-.3 2s.1 1.4.3 2c.2.6.5 1.1.9 1.6s.9.8 1.4 1.1c.6.3 1.3.4 1.9.4.3 0 .6 0 .9-.1.3-.1.5-.1.8-.3.2-.1.4-.2.6-.4l.5-.5v1.2h1.8v-5.4h-4.5v1.5h2.5v.1c0 .2 0 .5-.1.7-.1.3-.2.5-.4.7-.2.2-.4.4-.7.5-.4.2-.7.2-1.1.2-.4 0-.8-.1-1.2-.3-.3-.2-.6-.4-.8-.7-.2-.3-.4-.6-.5-1-.2-.4-.3-.8-.2-1.3zm-20.9-2.9c.4.2 1 0 1.1-.5.2-.4 0-1-.5-1.1-.4-.2-1 0-1.1.5-.1.4.1.9.5 1.1m-2 1.2c.4.2 1 0 1.1-.5.2-.4 0-1-.5-1.1-.4-.2-1 0-1.1.5-.1.4.1.9.5 1.1m-.5 2.2c.4.2 1 0 1.1-.5.2-.4 0-.9-.4-1.1-.4-.2-1 0-1.1.5-.3.4-.1.9.4 1.1m4.7-2.7c.4.2 1 0 1.1-.5.2-.4 0-1-.5-1.1-.4-.2-1 0-1.1.5-.1.4.1.9.5 1.1m8-.7c-.4.2-.9 0-1.1-.4-.2-.4 0-1 .5-1.1.4-.2 1 0 1.1.5.1.3-.1.8-.5 1m1.9 1.2c-.4.2-1 0-1.1-.5-.2-.4 0-1 .5-1.1.4-.2 1 0 1.1.5.2.4 0 .9-.5 1.1m.6 2.2c-.4.2-1 0-1.1-.5-.2-.4 0-1 .5-1.1.4-.2 1 0 1.1.5.1.4-.1.9-.5 1.1m-4.7-2.7c-.4.2-1 0-1.1-.5-.2-.4 0-1 .5-1.1.4-.2 1 0 1.1.5.1.4-.1.9-.5 1.1m-2.5-2.2l1.1.6V590l-1.1.3-.1-.1.4-1.4h-1.6l.5 1.4-.1.1-1.1-.3v1.6l1.1-.6.1.1-.6 1.9v.3c0 .5.4.9.9 1h.3c.5-.1.9-.5.9-1v-.3l-.7-1.9c.1 0 .1 0 0 0m-.4 9.3c1.9 0 3.9.1 5.8.4.3-1.5.9-2.9 1.7-4.2l-1.2-.4c.1.4.1.9 0 1.3-.3-.3-.4-.7-.5-1.1l-.6 1.9c.3-.2.6-.4.9-.4-.5 1.2-1.2 1.5-1.7 1.4-.5-.1-.8-.5-.7-.9v-.1c.1-.6.7-.7 1-.1.5-1.1-.4-1.4-1-1.1.8-.6 1-1.6.4-2.4 0-.1-.1-.1-.2-.2-.9.6-1.1 1.7-.6 2.6-.6-.7-1.5-.3-1.2.8.4-.7 1-.2.9.4s-.8 1-1.7.9c-1.3-.1-1.3-1-1.4-1.7.3-.1.9.2 1.4.9l.2-2c-.4.4-.9.7-1.5.7.3-.5.6-1 1-1.4H617c.4.4.7.9 1 1.4-.6 0-1.1-.2-1.5-.7l.2 2c.5-.7 1-1 1.3-.9 0 .7-.1 1.6-1.4 1.7-.9.1-1.6-.3-1.7-.9s.5-1 .9-.4c.3-1.1-.6-1.4-1.2-.8.6-.9.3-2-.5-2.6-.7.7-.6 1.8.1 2.5.1.1.1.1.2.1-.6-.3-1.5 0-1 1.1.3-.7.9-.5 1 .1.1.4-.2.9-.6 1h-.1c-.4.1-1.1-.2-1.7-1.4.3 0 .7.2.9.4l-.6-1.9c-.1.4-.3.8-.5 1.1-.1-.4-.1-.9 0-1.3l-1.2.4c.9 1.3 1.5 2.7 1.7 4.2 2.1-.3 4-.4 6-.4"/></g><path class="st11" d="M602 580.6h97.7v30H602v-30z"/><path class="st8" d="M689.6 640.6H612m55.5 11.3H612m77.6 11.4H612m55.5 11.3H612m55.5 16H612m77.6 11.3H612m55.5 11.4H612m77.6 11.3H612"/><path class="st13" d="M741 640.6h-34m34 25h-34"/><path class="st8" d="M667.5 774.6H612m77.6-11.3H612m55.5-11.4H612m77.6-11.3H612"/><path class="st13" d="M741 690.6h-34"/><text transform="translate(612 627.94)" class="st3 st4">Content page</text><path class="st0" d="M202 60.6h160v220H202v-220z"/><path class="st1" d="M202 60.6h160v220H202v-220z"/><path class="st2" d="M202 60.6h160v30H202v-30z"/><text transform="translate(207 78.94)" class="st0 st3 st4">ADMIN</text><text transform="translate(212 107.94)" class="st3 st4">Question page</text><path class="st5" d="M212 230.6h80v25h-80v-25z"/><text transform="translate(227.02 246.44)" class="st0 st3 st4">Continue</text><path class="st0" d="M2 60.6h160v220H2v-220z"/><path class="st14" d="M2 60.6h160v220H2v-220z"/><path d="M2 60.6h160v30H2v-30z"/><text transform="translate(7 78.94)" class="st0 st3 st4">ADMIN</text><text transform="translate(13.34 152.94)" class="st3 st4">Dashboard</text><path class="st13" d="M13.3 164.6h62.4m-62.4 11.3h62.4m-62.4 11.4h62.4m-62.4 11.3h62.4m-62.4 11.3h62.4m-62.4 11.4h62.4m-62.4 11.3h62.4M13.3 244h62.4"/><path class="st8" d="M81.4 164.6h22.7m-22.7 11.3h22.7m-22.7 11.4h22.7m-22.7 11.3h22.7m-22.7 11.3h22.7m-22.7 11.4h22.7m-22.7 11.3h22.7M81.4 244h22.7m5.6-79.4h22.7m-22.7 11.3h22.7m-22.7 11.4h22.7m-22.7 11.3h22.7m-22.7 11.3h22.7m-22.7 11.4h22.7m-22.7 11.3h22.7M109.7 244h22.7"/><path class="st5" d="M12 100.6h110v30H12v-30z"/><text transform="translate(19.56 118.94)" class="st0 st3 st4">Cre</text><text transform="translate(38.95 118.94)" class="st0 st3 st4">a</text><text transform="translate(44.9 118.94)" class="st0 st3 st4">te document</text><path class="st0" d="M202 580.6h160v220H202v-220z"/><path class="st17" d="M202 605.6h160v80H202v-80z"/><path class="st14" d="M202 580.6h160v220H202v-220z"/><path d="M202 580.6h160v30H202v-30z"/><defs><path id="SVGID_9_" d="M202 580.6h97.7v30H202z"/></defs><clipPath id="SVGID_10_"><use xlink:href="#SVGID_9_" overflow="visible"/></clipPath><g clip-path="url(#SVGID_10_)"><path class="st0" d="M275.3 600.5h2v-3l1.3-1.4 2.6 4.4h2.3l-3.7-6 3.4-3.9h-2.5l-3.5 4.3v-4.3h-2l.1 9.9z"/></g><path class="st11" d="M202 580.6h97.7v30H202v-30z"/><defs><path id="SVGID_11_" d="M202 580.6h97.6v30H202z"/></defs><clipPath id="SVGID_12_"><use xlink:href="#SVGID_11_" overflow="visible"/></clipPath><g clip-path="url(#SVGID_12_)"><path class="st0" d="M268.5 598.7c-.2-.1-.5-.2-.6-.4-.2-.2-.3-.4-.4-.7-.1-.3-.2-.6-.2-.9v-6.1h-2v6.4c0 .5.1 1 .3 1.5.2.4.5.8.8 1.1.4.3.8.6 1.3.7.5.2 1.1.3 1.6.2.6 0 1.1-.1 1.6-.2.5-.2.9-.4 1.3-.7.4-.3.6-.7.8-1.1.2-.5.3-1 .3-1.5v-6.4h-2v6.1c0 .3 0 .6-.2.9-.1.3-.2.5-.4.7-.2.2-.4.3-.6.4-.3.1-.5.1-.8.1-.4 0-.6 0-.8-.1m-7.3 1.2c.1.2.2.3.3.4.1.1.3.2.4.3.2.1.3.1.5.1.3 0 .6-.1.9-.4.1-.1.2-.3.3-.4.1-.2.1-.3.1-.5s0-.3-.1-.5-.2-.3-.3-.4c-.2-.2-.5-.4-.9-.4-.2 0-.3 0-.5.1-.1.1-.3.2-.4.3-.1.1-.2.2-.3.4-.1.1-.1.3-.1.5s.1.3.1.5M258.1 600.5l2.8-9.9h-2.2l-1.9 7.4h-.1l-1.9-7.4h-2.2l2.8 9.9h2.7zM245.1 590.9c-.6.3-1.1.6-1.5 1.1-.4.5-.7 1-.9 1.6-.4 1.3-.4 2.7 0 4 .2.6.5 1.1.9 1.6s.9.8 1.5 1.1c.6.3 1.3.4 2 .4s1.4-.1 2-.4c.6-.3 1.1-.6 1.5-1.1.4-.5.7-1 .9-1.6.4-1.3.4-2.7 0-4-.2-.6-.5-1.1-.9-1.6s-.9-.8-1.5-1.1c-.6-.3-1.3-.4-2-.4s-1.4.1-2 .4m.8 7.7c-.3-.2-.6-.4-.8-.7-.2-.3-.4-.6-.5-1-.1-.4-.2-.9-.2-1.3v-.1c0-.4.1-.9.2-1.3s.3-.7.5-1c.2-.3.5-.5.8-.7.4-.2.8-.3 1.1-.2.4 0 .8.1 1.1.2.3.2.6.4.8.7.2.3.4.6.5 1 .1.4.2.9.2 1.3v.1c0 .4-.1.9-.2 1.3s-.3.7-.5 1c-.2.3-.5.5-.8.7-.4.2-.7.2-1.1.2-.3 0-.7 0-1.1-.2m-11.8-3.1c0-.4.1-.8.1-1.2.1-.4.3-.7.5-1 .2-.3.5-.5.8-.7.4-.2.8-.3 1.2-.3.3 0 .5 0 .8.1l.6.3c.2.1.3.3.5.5.1.2.3.4.4.6l1.8-1c-.2-.4-.4-.7-.6-1-.3-.3-.6-.5-.9-.7-.4-.2-.8-.4-1.2-.5-.4-.1-.9-.2-1.3-.2-.7 0-1.4.1-2 .4-.6.3-1.1.6-1.5 1.1-.4.5-.7 1-1 1.6-.2.6-.3 1.3-.3 2s.1 1.4.3 2c.2.6.5 1.1.9 1.6s.9.8 1.4 1.1c.6.3 1.3.4 1.9.4.3 0 .6 0 .9-.1.3-.1.5-.1.8-.3.2-.1.4-.2.6-.4l.5-.5v1.2h1.8v-5.4h-4.5v1.5h2.5v.1c0 .2 0 .5-.1.7-.1.3-.2.5-.4.7-.2.2-.4.4-.7.5-.4.2-.7.2-1.1.2-.4 0-.8-.1-1.2-.3-.3-.2-.6-.4-.8-.7-.2-.3-.4-.6-.5-1-.2-.4-.2-.8-.2-1.3zm-20.9-2.9c.4.2 1 0 1.1-.5.2-.4 0-1-.5-1.1s-1 0-1.1.5c-.1.4.1.9.5 1.1m-2 1.2c.4.2 1 0 1.1-.5.2-.4 0-1-.5-1.1-.4-.2-1 0-1.1.5-.1.4.1.9.5 1.1m-.6 2.2c.4.2 1 0 1.1-.5.2-.4 0-.9-.4-1.1-.4-.2-1 0-1.1.5-.2.4 0 .9.4 1.1m4.8-2.7c.4.2 1 0 1.1-.5.2-.4 0-1-.5-1.1-.4-.2-1 0-1.1.5-.1.4.1.9.5 1.1m8-.7c-.4.2-.9 0-1.1-.4-.2-.4 0-1 .5-1.1.4-.2 1 0 1.1.5.1.3-.1.8-.5 1m1.9 1.2c-.4.2-1 0-1.1-.5s0-1 .5-1.1c.4-.2 1 0 1.1.5.2.4 0 .9-.5 1.1m.6 2.2c-.4.2-1 0-1.1-.5-.2-.4 0-1 .5-1.1.4-.2 1 0 1.1.5.1.4-.1.9-.5 1.1m-4.7-2.7c-.4.2-1 0-1.1-.5-.2-.4 0-1 .5-1.1.4-.2 1 0 1.1.5.1.4-.1.9-.5 1.1m-2.5-2.2l1.1.6V590l-1.1.3-.1-.1.4-1.4h-1.6l.5 1.4-.1.1-1.1-.3v1.6l1.1-.6.1.1-.6 1.9v.3c0 .5.4.9.9 1h.3c.5-.1.9-.5.9-1v-.3l-.7-1.9s.1 0 0 0m-.4 9.3c1.9 0 3.9.1 5.8.4.3-1.5.9-2.9 1.7-4.2l-1.2-.4c.1.4.1.9 0 1.3-.3-.3-.4-.7-.5-1.1l-.6 1.9c.3-.2.6-.4.9-.4-.5 1.2-1.2 1.5-1.7 1.4-.5-.1-.8-.5-.7-.9v-.1c.1-.6.7-.7 1-.1.5-1.1-.4-1.4-1-1.1.8-.6 1-1.6.4-2.4 0-.1-.1-.1-.2-.2-.9.6-1.1 1.7-.6 2.6-.6-.7-1.5-.3-1.2.8.4-.7 1-.2.9.4s-.8 1-1.7.9c-1.3-.1-1.4-1-1.4-1.7.3-.1.9.2 1.4.9l.2-2c-.4.4-.9.7-1.5.7.3-.5.6-1 1-1.4H217c.4.4.7.9 1 1.4-.6 0-1.1-.2-1.5-.7l.2 2c.5-.7 1-1 1.4-.9 0 .7-.1 1.6-1.4 1.7-.9.1-1.6-.3-1.7-.9s.5-1 .9-.4c.3-1.1-.6-1.4-1.2-.8.6-.9.3-2-.5-2.6-.7.7-.6 1.8.1 2.5.1.1.1.1.2.1-.6-.3-1.5 0-1 1.1.3-.7.9-.5 1 .1.1.4-.2.9-.6 1h-.1c-.4.1-1.1-.2-1.7-1.4.3 0 .7.2.9.4l-.6-1.9c-.1.4-.3.8-.5 1.1-.1-.4-.1-.9 0-1.3l-1.2.4c.9 1.3 1.5 2.7 1.7 4.2 2-.3 3.9-.4 5.9-.4"/></g><path class="st11" d="M202 580.6h97.7v30H202v-30z"/><path class="st13" d="M267.5 695.6H212"/><path class="st8" d="M289.6 706.9H212m55.5 11.4H212m77.6 11.3H212m55.5 51H212m77.6-11.3H212m55.5-11.3H212"/><path class="st13" d="M289.6 746.6H212"/><text transform="translate(212 627.94)" class="st0 st3 st4">T</text><text transform="translate(218 627.94)" class="st0 st3 st4">opic page</text><path d="M267.5 645.6H212m77.6 11.3H212m55.5 11.4H212" fill="none" stroke="#fff" stroke-width="5" stroke-linecap="square" stroke-miterlimit="10"/><path class="st0" d="M2 840.6h160v220H2v-220z"/><path class="st14" d="M2 840.6h160v220H2v-220z"/><path d="M2 840.6h160v30H2v-30z"/><defs><path id="SVGID_13_" d="M2 840.6h97.7v30H2z"/></defs><clipPath id="SVGID_14_"><use xlink:href="#SVGID_13_" overflow="visible"/></clipPath><g clip-path="url(#SVGID_14_)"><path class="st0" d="M75.3 860.5h2v-3l1.3-1.4 2.6 4.4h2.3l-3.7-6 3.4-3.9h-2.5l-3.5 4.3v-4.3h-2v9.9z"/></g><path class="st11" d="M2 840.6h97.7v30H2v-30z"/><defs><path id="SVGID_15_" d="M2 840.6h97.6v30H2z"/></defs><clipPath id="SVGID_16_"><use xlink:href="#SVGID_15_" overflow="visible"/></clipPath><g clip-path="url(#SVGID_16_)"><path class="st0" d="M68.5 858.7c-.2-.1-.5-.2-.6-.4-.2-.2-.3-.4-.4-.7-.1-.3-.2-.6-.2-.9v-6.1h-2v6.4c0 .5.1 1 .3 1.5.2.4.5.8.8 1.1.4.3.8.6 1.3.7.5.2 1.1.3 1.6.2.6 0 1.1-.1 1.6-.2.5-.2.9-.4 1.3-.7.4-.3.6-.7.8-1.1.2-.5.3-1 .3-1.5v-6.4h-2v6.1c0 .3 0 .6-.2.9-.1.3-.2.5-.4.7-.2.2-.4.3-.6.4-.3.1-.5.1-.8.1-.4 0-.6 0-.8-.1m-7.3 1.2c.1.2.2.3.3.4.1.1.3.2.4.3.2.1.3.1.5.1.3 0 .6-.1.9-.4.2-.2.4-.6.4-.9 0-.2 0-.3-.1-.5s-.2-.3-.3-.4c-.2-.2-.5-.4-.9-.4-.2 0-.3 0-.5.1-.1.1-.3.2-.4.3-.1.1-.2.2-.3.4-.1.1-.1.3-.1.5s.1.3.1.5M58.1 860.5l2.8-9.9h-2.2l-1.9 7.4h-.1l-1.9-7.4h-2.2l2.8 9.9h2.7zM45.1 850.9c-.6.3-1.1.6-1.5 1.1-.4.5-.7 1-.9 1.6-.4 1.3-.4 2.7 0 4 .2.6.5 1.1.9 1.6s.9.8 1.5 1.1c.6.3 1.3.4 2 .4s1.4-.1 2-.4c.6-.3 1.1-.6 1.5-1.1.4-.5.7-1 .9-1.6.4-1.3.4-2.7 0-4-.2-.6-.5-1.1-.9-1.6s-.9-.8-1.5-1.1c-.6-.3-1.3-.4-2-.4s-1.4.1-2 .4m.8 7.7c-.3-.2-.6-.4-.8-.7-.2-.3-.4-.6-.5-1-.1-.4-.2-.9-.2-1.3v-.1c0-.4.1-.9.2-1.3s.3-.7.5-1c.2-.3.5-.5.8-.7.4-.2.8-.3 1.1-.2.4 0 .8.1 1.1.2.3.2.6.4.8.7.2.3.4.6.5 1 .1.4.2.9.2 1.3v.1c0 .4-.1.9-.2 1.3s-.3.7-.5 1c-.2.3-.5.5-.8.7-.4.2-.7.2-1.1.2-.3 0-.7 0-1.1-.2m-11.8-3.1c0-.4.1-.8.1-1.2.1-.4.3-.7.5-1 .2-.3.5-.5.8-.7.4-.2.8-.3 1.2-.3.3 0 .5 0 .8.1l.6.3c.2.1.3.3.5.5.1.2.3.4.4.6l1.8-1c-.2-.4-.4-.7-.6-1-.3-.3-.6-.5-.9-.7-.4-.2-.8-.4-1.2-.5-.4-.1-.9-.2-1.3-.2-.7 0-1.4.1-2 .4-.6.3-1.1.6-1.5 1.1-.4.5-.8 1-1 1.6-.2.6-.3 1.3-.3 2s.1 1.4.3 2c.2.6.5 1.1.9 1.6s.9.8 1.4 1.1c.6.3 1.3.4 1.9.4.3 0 .6 0 .9-.1.3-.1.5-.1.8-.3.2-.1.4-.2.6-.4l.5-.5v1.2H41v-5.4h-4.5v1.5H39v.1c0 .2 0 .5-.1.7-.1.3-.2.5-.4.7-.2.2-.4.4-.7.5-.4.2-.7.2-1.1.2-.4 0-.8-.1-1.2-.3-.3-.2-.6-.4-.8-.7-.2-.3-.4-.6-.5-1-.1-.4-.2-.8-.1-1.3zm-20.9-2.9c.4.2 1 0 1.1-.5.2-.4 0-1-.5-1.1-.4-.2-1 0-1.1.5-.1.4.1.9.5 1.1m-2 1.2c.4.2 1 0 1.1-.5.2-.4 0-1-.5-1.1-.4-.2-1 0-1.1.5-.1.4.1.9.5 1.1m-.5 2.2c.4.2 1 0 1.1-.5.2-.4 0-.9-.4-1.1-.4-.2-1 0-1.1.5s-.1.9.4 1.1m4.7-2.7c.4.2 1 0 1.1-.5.2-.4 0-1-.5-1.1-.4-.2-1 0-1.1.5-.1.4.1.9.5 1.1m8-.7c-.4.2-.9 0-1.1-.4-.2-.4 0-1 .5-1.1s1 0 1.1.5c.1.3-.1.8-.5 1m1.9 1.2c-.4.2-1 0-1.1-.5-.2-.4 0-1 .5-1.1.4-.2 1 0 1.1.5.2.4 0 .9-.5 1.1m.6 2.2c-.4.2-1 0-1.1-.5-.2-.4 0-1 .5-1.1.4-.2 1 0 1.1.5.1.4-.1.9-.5 1.1m-4.7-2.7c-.4.2-1 0-1.1-.5-.2-.4 0-1 .5-1.1.4-.2 1 0 1.1.5.1.4-.1.9-.5 1.1m-2.5-2.2l1.1.6V850l-1.1.3-.1-.1.4-1.4h-1.6l.4 1.4-.1.1-1.1-.3v1.6l1.1-.6.1.1-.6 1.9v.3c0 .5.4.9.9 1h.3c.5-.1.9-.5.9-1v-.3l-.6-1.9c0 .1.1 0 .1 0m-.5 9.3c1.9 0 3.9.1 5.8.4.3-1.5.9-2.9 1.7-4.2l-1.2-.4c.1.4.1.9 0 1.3-.3-.3-.4-.7-.5-1.1l-.6 1.9c.3-.2.6-.4.9-.4-.6 1.2-1.2 1.5-1.7 1.4-.5-.1-.8-.5-.7-.9v-.1c.1-.6.7-.7 1-.1.5-1.1-.4-1.4-1-1.1.8-.6 1-1.6.4-2.4 0-.1-.1-.1-.2-.2-.9.6-1.1 1.7-.6 2.6-.6-.7-1.5-.3-1.2.8.4-.7 1-.2.9.4s-.8 1-1.7.9c-1.3-.1-1.3-1-1.4-1.7.3-.1.9.2 1.4.9l.2-2c-.4.4-.9.7-1.5.7.3-.5.6-1 1-1.4H17c.4.4.7.9 1 1.4-.6 0-1.1-.2-1.5-.7l.2 2c.5-.7 1-1 1.3-.9 0 .7-.1 1.6-1.4 1.7-.9.1-1.6-.3-1.7-.9s.5-1 .9-.4c.3-1.1-.6-1.4-1.2-.8.6-.9.3-2-.5-2.6-.7.7-.6 1.8.1 2.5.1.1.1.1.2.1-.6-.3-1.5 0-1 1.1.3-.7.9-.5 1 .1.1.4-.2.9-.6 1h-.1c-.4.1-1.1-.2-1.7-1.4.3 0 .7.2.9.4l-.6-1.9c-.1.4-.3.8-.5 1.1-.1-.4-.1-.9 0-1.3l-1.2.4c.9 1.3 1.5 2.7 1.7 4.2 2-.3 4-.4 6-.4"/></g><path class="st11" d="M2 840.6h97.7v30H2v-30z"/><path class="st8" d="M89.6 900.6H12m55.5 11.3H12m77.6 11.4H12m55.5 11.3H12m55.5 16H12m77.6 11.3H12m55.5 11.4H12m77.6 11.3H12"/><path class="st13" d="M141 900.6h-34"/><text transform="translate(12 887.94)" class="st3 st4">Start page</text><path class="st5" d="M12 1005.6h80v25H12v-25z"/><text transform="translate(25.45 1021.44)" class="st0 st3 st4">Start now</text><path class="st0" d="M2 580.6h160v220H2v-220z"/><path class="st17" d="M2 605.6h160v80H2v-80z"/><path class="st14" d="M2 580.6h160v220H2v-220z"/><path d="M2 580.6h160v30H2v-30z"/><defs><path id="SVGID_17_" d="M2 580.6h100v30.7H2z"/></defs><clipPath id="SVGID_18_"><use xlink:href="#SVGID_17_" overflow="visible"/></clipPath><g clip-path="url(#SVGID_18_)"><path class="st0" d="M77 601h2v-3.1l1.3-1.5L83 601h2.4l-3.8-6.1 3.5-4h-2.5l-3.6 4.4v-4.4h-2V601z"/></g><path class="st11" d="M2 580.6h100v30.7H2v-30.7z"/><defs><path id="SVGID_19_" d="M2 580.6h99.9v30.7H2z"/></defs><clipPath id="SVGID_20_"><use xlink:href="#SVGID_19_" overflow="visible"/></clipPath><g clip-path="url(#SVGID_20_)"><path class="st0" d="M70 599.1c-.2-.1-.5-.2-.7-.4-.2-.2-.4-.4-.4-.7-.1-.3-.2-.7-.2-1v-6.3h-2v6.6c0 .5.1 1 .3 1.5.2.4.5.8.9 1.2.4.3.8.6 1.3.7 1.1.3 2.2.3 3.3 0 .5-.2.9-.4 1.3-.7.4-.3.7-.7.9-1.2.2-.5.3-1 .3-1.5v-6.6h-2v6.3c0 .3 0 .7-.2 1-.1.3-.2.5-.4.7-.2.2-.4.3-.7.4-.5.2-1.1.2-1.7 0m-7.4 1.2c.1.2.2.3.3.4.1.1.3.2.4.3.2.1.3.1.5.1s.3 0 .5-.1.3-.2.4-.3c.1-.1.2-.3.3-.4.1-.2.1-.3.1-.5s0-.3-.1-.5c-.1-.3-.4-.5-.7-.7-.2-.1-.3-.1-.5-.1s-.3 0-.5.1-.3.2-.4.3c-.1.1-.2.3-.3.4-.1.2-.1.3-.1.5s.1.4.1.5M59.4 601l2.9-10.1H60l-1.9 7.6H58l-2-7.6h-2.3l2.9 10.1h2.8zM46.1 591.1c-.6.3-1.1.6-1.5 1.1-.4.5-.8 1-1 1.7-.4 1.3-.4 2.8 0 4.1.2.6.6 1.2 1 1.7s.9.8 1.5 1.1c1.3.5 2.8.5 4.1 0 .6-.3 1.1-.6 1.5-1.1.4-.5.8-1 1-1.7.4-1.3.4-2.8 0-4.1-.2-.6-.6-1.2-1-1.7s-.9-.9-1.5-1.1c-1.4-.5-2.8-.5-4.1 0m.8 7.9c-.3-.2-.6-.4-.9-.7-.2-.3-.4-.6-.5-1-.1-.4-.2-.9-.2-1.3v-.1c0-.4.1-.9.2-1.3s.3-.7.5-1.1c.2-.3.5-.5.9-.7.4-.2.8-.3 1.2-.2.8 0 1.5.3 2 .9.2.3.4.7.5 1.1.1.4.2.9.2 1.3v.1c0 .4-.1.9-.2 1.3s-.3.7-.5 1c-.5.6-1.2 1-2 1-.4 0-.8-.1-1.2-.3m-12-3.1c0-.4.1-.8.2-1.2.1-.4.3-.7.5-1.1.2-.3.5-.6.8-.7.4-.2.8-.3 1.2-.3.3 0 .6 0 .8.1.2.1.5.2.7.3.2.1.4.3.5.5.2.2.3.4.4.6l1.8-1c-.2-.4-.4-.7-.7-1-.3-.3-.6-.5-.9-.8-.4-.2-.8-.4-1.2-.5-.4-.1-.9-.2-1.4-.2-.7 0-1.4.1-2 .4-.6.3-1.1.6-1.5 1.1-.4.5-.8 1-1 1.7-.2.6-.3 1.3-.3 2s.1 1.4.3 2c.2.6.5 1.2.9 1.7s.9.9 1.4 1.1c.6.3 1.3.4 2 .4.3 0 .6 0 .9-.1.3-.1.5-.1.8-.3.2-.1.4-.2.6-.4l.5-.5v1.3H42v-5.5h-4.6v1.5H40v.1c0 .2 0 .5-.1.7-.1.3-.2.5-.4.7-.2.2-.4.4-.7.5-.8.3-1.6.3-2.4-.1-.3-.2-.6-.4-.8-.7-.2-.3-.4-.7-.5-1.1-.1-.3-.2-.7-.2-1.2zm-21.4-3c.5.2 1 0 1.2-.5.2-.5 0-1-.5-1.2-.5-.2-1 0-1.2.5-.2.5 0 1 .5 1.2m-2.1 1.2c.5.2 1 0 1.2-.5.2-.4 0-1-.4-1.2s-1 0-1.2.4v.1c-.2.5 0 1 .4 1.2m-.5 2.2c.4.2 1 0 1.2-.5.2-.4 0-1-.4-1.2s-1 0-1.2.4v.1c-.3.5-.1 1 .4 1.2m4.8-2.7c.5.2 1 0 1.2-.5.2-.5 0-1-.5-1.2-.5-.2-1 0-1.2.5-.2.5.1 1 .5 1.2m8.2-.7c-.5.2-1 0-1.2-.5-.2-.5 0-1 .5-1.2.5-.2 1 0 1.2.5.1.5-.1 1-.5 1.2m2 1.2c-.5.2-1 0-1.2-.5-.2-.4 0-1 .4-1.2s1 0 1.2.4v.1c.2.5 0 1-.4 1.2m.6 2.2c-.5.2-1 0-1.2-.5-.2-.4 0-1 .4-1.2s1 0 1.2.4v.1c.2.5 0 1-.4 1.2m-4.9-2.7c-.5.2-1 0-1.2-.5-.2-.5 0-1 .5-1.2.5-.2 1 0 1.2.5.2.5 0 1-.5 1.2m-2.5-2.3l1.1.6v-1.7l-1.1.4-.1-.1.4-1.4h-1.6l.4 1.4-.1.1-1.1-.4v1.7l1.1-.6.1.1-.6 2c-.2.6.2 1.2.7 1.3h.4c.6 0 1-.5.9-1.1 0-.1 0-.2-.1-.3l-.7-2c.3.1.3.1.3 0m-.4 9.5c2 0 4 .1 6 .4.3-1.5.9-3 1.8-4.3l-1.2-.4c.1.4.1.9 0 1.3-.3-.3-.5-.7-.5-1.1l-.6 2c.3-.2.6-.4.9-.4-.6 1.2-1.2 1.5-1.7 1.4-.5-.1-.8-.5-.7-1 .1-.6.7-.7 1-.1.5-1.1-.4-1.5-1-1.1.8-.6 1-1.7.4-2.5 0-.1-.1-.1-.2-.2-.9.6-1.1 1.8-.6 2.6-.6-.7-1.5-.3-1.2.8.4-.7 1-.2.9.4s-.8 1-1.7.9c-1.3-.1-1.4-1-1.4-1.8.3-.1.9.2 1.4.9l.2-2.1c-.4.4-1 .7-1.6.7.3-.5.6-1 1-1.5h-2.6c.4.4.7.9 1 1.5-.6 0-1.2-.2-1.6-.7l.2 2.1c.5-.7 1.1-1 1.4-.9 0 .7-.1 1.6-1.4 1.8-.9.1-1.6-.4-1.7-.9s.5-1 .9-.4c.3-1.1-.6-1.5-1.2-.8.6-.9.3-2.1-.6-2.6-.7.7-.6 1.9.1 2.5l.2.2c-.6-.3-1.5 0-1 1.1.3-.7.9-.5 1 .1.1.5-.2.9-.7 1-.4.1-1.1-.2-1.7-1.4.3 0 .7.2.9.4l-.6-2c-.1.4-.3.8-.5 1.1-.1-.4-.1-.9 0-1.3l-1.2.4c.9 1.3 1.5 2.7 1.8 4.3 2-.2 4-.4 6.1-.4"/></g><path class="st11" d="M2 580.6h100v30.7H2v-30.7z"/><path class="st13" d="M44.1 695.6H12"/><path class="st8" d="M52 706.9H12"/><path class="st13" d="M44.1 718.3H12"/><path class="st8" d="M52 729.6H12m32.1 51H12"/><path class="st13" d="M52 769.3H12"/><path class="st8" d="M44.1 758H12"/><path class="st13" d="M52 746.6H12"/><text transform="translate(12 627.94)" class="st0 st3 st4">W</text><text transform="translate(22.56 627.94)" class="st0 st3 st4">elcome</text><text transform="translate(62.98 627.94)" class="st0 st3 st4"></text><text transform="translate(64.92 627.94)" class="st0 st3 st4">to GO</text><text transform="translate(96.59 627.94)" class="st0 st3 st4">V</text><text transform="translate(103.53 627.94)" class="st0 st3 st4">.UK</text><path class="st13" d="M94.1 695.6H62"/><path class="st8" d="M102 706.9H62"/><path class="st13" d="M94.1 718.3H62"/><path class="st8" d="M102 729.6H62m32.1 51H62"/><path class="st13" d="M102 769.3H62"/><path class="st8" d="M94.1 758H62"/><path class="st13" d="M102 746.6H62m82.1-51H112"/><path class="st8" d="M152 706.9h-40"/><path class="st13" d="M144.1 718.3H112"/><path class="st8" d="M152 729.6h-40m32.1 51H112"/><path class="st13" d="M152 769.3h-40"/><path class="st8" d="M144.1 758H112"/><path class="st13" d="M152 746.6h-40"/><path class="st0" d="M12 645.6h95v15H12v-15z"/><path class="st2" d="M107 645.6h15v15h-15v-15z"/><path class="st0" d="M202 840.6h160v220H202v-220z"/><path class="st1" d="M202 840.6h160v220H202v-220z"/><path class="st2" d="M202 840.6h160v30H202v-30z"/><text transform="translate(212 887.94)" class="st3 st4">Question page</text><path class="st5" d="M212 1010.6h80v25h-80v-25z"/><text transform="translate(227.02 1026.44)" class="st0 st3 st4">Continue</text><defs><path id="SVGID_21_" d="M202 840.6h97.7v30H202z"/></defs><clipPath id="SVGID_22_"><use xlink:href="#SVGID_21_" overflow="visible"/></clipPath><g clip-path="url(#SVGID_22_)"><path class="st0" d="M275.3 860.5h2v-3l1.3-1.4 2.6 4.4h2.3l-3.7-6 3.4-3.9h-2.5l-3.5 4.3v-4.3h-2l.1 9.9z"/></g><path class="st11" d="M202 840.6h97.7v30H202v-30z"/><defs><path id="SVGID_23_" d="M202 840.6h97.6v30H202z"/></defs><clipPath id="SVGID_24_"><use xlink:href="#SVGID_23_" overflow="visible"/></clipPath><g clip-path="url(#SVGID_24_)"><path class="st0" d="M268.5 858.7c-.2-.1-.5-.2-.6-.4-.2-.2-.3-.4-.4-.7-.1-.3-.2-.6-.2-.9v-6.1h-2v6.4c0 .5.1 1 .3 1.5.2.4.5.8.8 1.1.4.3.8.6 1.3.7.5.2 1.1.3 1.6.2.6 0 1.1-.1 1.6-.2.5-.2.9-.4 1.3-.7.4-.3.6-.7.8-1.1.2-.5.3-1 .3-1.5v-6.4h-2v6.1c0 .3 0 .6-.2.9-.1.3-.2.5-.4.7-.2.2-.4.3-.6.4-.3.1-.5.1-.8.1-.4 0-.6 0-.8-.1m-7.3 1.2c.1.2.2.3.3.4.1.1.3.2.4.3.2.1.3.1.5.1.3 0 .6-.1.9-.4.2-.2.4-.6.4-.9 0-.2 0-.3-.1-.5s-.2-.3-.3-.4c-.2-.2-.5-.4-.9-.4-.2 0-.3 0-.5.1-.1.1-.3.2-.4.3-.1.1-.2.2-.3.4-.1.1-.1.3-.1.5s.1.3.1.5M258.1 860.5l2.8-9.9h-2.2l-1.9 7.4h-.1l-1.9-7.4h-2.2l2.8 9.9h2.7zM245.1 850.9c-.6.3-1.1.6-1.5 1.1-.4.5-.7 1-.9 1.6-.4 1.3-.4 2.7 0 4 .2.6.5 1.1.9 1.6s.9.8 1.5 1.1c.6.3 1.3.4 2 .4s1.4-.1 2-.4c.6-.3 1.1-.6 1.5-1.1.4-.5.7-1 .9-1.6.4-1.3.4-2.7 0-4-.2-.6-.5-1.1-.9-1.6s-.9-.8-1.5-1.1c-.6-.3-1.3-.4-2-.4s-1.4.1-2 .4m.8 7.7c-.3-.2-.6-.4-.8-.7-.2-.3-.4-.6-.5-1-.1-.4-.2-.9-.2-1.3v-.1c0-.4.1-.9.2-1.3s.3-.7.5-1c.2-.3.5-.5.8-.7.4-.2.8-.3 1.1-.2.4 0 .8.1 1.1.2.3.2.6.4.8.7.2.3.4.6.5 1 .1.4.2.9.2 1.3v.1c0 .4-.1.9-.2 1.3s-.3.7-.5 1c-.2.3-.5.5-.8.7-.4.2-.7.2-1.1.2-.3 0-.7 0-1.1-.2m-11.8-3.1c0-.4.1-.8.1-1.2.1-.4.3-.7.5-1 .2-.3.5-.5.8-.7.4-.2.8-.3 1.2-.3.3 0 .5 0 .8.1l.6.3c.2.1.3.3.5.5.1.2.3.4.4.6l1.8-1c-.2-.4-.4-.7-.6-1-.3-.3-.6-.5-.9-.7-.4-.2-.8-.4-1.2-.5-.4-.1-.9-.2-1.3-.2-.7 0-1.4.1-2 .4-.6.3-1.1.6-1.5 1.1-.4.5-.7 1-1 1.6-.2.6-.3 1.3-.3 2s.1 1.4.3 2c.2.6.5 1.1.9 1.6s.9.8 1.4 1.1c.6.3 1.3.4 1.9.4.3 0 .6 0 .9-.1.3-.1.5-.1.8-.3.2-.1.4-.2.6-.4l.5-.5v1.2h1.8v-5.4h-4.5v1.5h2.5v.1c0 .2 0 .5-.1.7-.1.3-.2.5-.4.7-.2.2-.4.4-.7.5-.4.2-.7.2-1.1.2-.4 0-.8-.1-1.2-.3-.3-.2-.6-.4-.8-.7-.2-.3-.4-.6-.5-1-.2-.4-.2-.8-.2-1.3zm-20.9-2.9c.4.2 1 0 1.1-.5.2-.4 0-1-.5-1.1s-1 0-1.1.5c-.1.4.1.9.5 1.1m-2 1.2c.4.2 1 0 1.1-.5.2-.4 0-1-.5-1.1-.4-.2-1 0-1.1.5-.1.4.1.9.5 1.1m-.6 2.2c.4.2 1 0 1.1-.5.2-.4 0-.9-.4-1.1-.4-.2-1 0-1.1.5-.2.4 0 .9.4 1.1m4.8-2.7c.4.2 1 0 1.1-.5.2-.4 0-1-.5-1.1-.4-.2-1 0-1.1.5-.1.4.1.9.5 1.1m8-.7c-.4.2-.9 0-1.1-.4-.2-.4 0-1 .5-1.1.4-.2 1 0 1.1.5.1.3-.1.8-.5 1m1.9 1.2c-.4.2-1 0-1.1-.5s0-1 .5-1.1c.4-.2 1 0 1.1.5.2.4 0 .9-.5 1.1m.6 2.2c-.4.2-1 0-1.1-.5-.2-.4 0-1 .5-1.1.4-.2 1 0 1.1.5.1.4-.1.9-.5 1.1m-4.7-2.7c-.4.2-1 0-1.1-.5-.2-.4 0-1 .5-1.1.4-.2 1 0 1.1.5.1.4-.1.9-.5 1.1m-2.5-2.2l1.1.6V850l-1.1.3-.1-.1.4-1.4h-1.6l.5 1.4-.1.1-1.1-.3v1.6l1.1-.6.1.1-.6 1.9v.3c0 .5.4.9.9 1h.3c.5-.1.9-.5.9-1v-.3l-.7-1.9s.1 0 0 0m-.4 9.3c1.9 0 3.9.1 5.8.4.3-1.5.9-2.9 1.7-4.2l-1.2-.4c.1.4.1.9 0 1.3-.3-.3-.4-.7-.5-1.1l-.6 1.9c.3-.2.6-.4.9-.4-.5 1.2-1.2 1.5-1.7 1.4-.5-.1-.8-.5-.7-.9v-.1c.1-.6.7-.7 1-.1.5-1.1-.4-1.4-1-1.1.8-.6 1-1.6.4-2.4 0-.1-.1-.1-.2-.2-.9.6-1.1 1.7-.6 2.6-.6-.7-1.5-.3-1.2.8.4-.7 1-.2.9.4s-.8 1-1.7.9c-1.3-.1-1.4-1-1.4-1.7.3-.1.9.2 1.4.9l.2-2c-.4.4-.9.7-1.5.7.3-.5.6-1 1-1.4H217c.4.4.7.9 1 1.4-.6 0-1.1-.2-1.5-.7l.2 2c.5-.7 1-1 1.4-.9 0 .7-.1 1.6-1.4 1.7-.9.1-1.6-.3-1.7-.9s.5-1 .9-.4c.3-1.1-.6-1.4-1.2-.8.6-.9.3-2-.5-2.6-.7.7-.6 1.8.1 2.5.1.1.1.1.2.1-.6-.3-1.5 0-1 1.1.3-.7.9-.5 1 .1.1.4-.2.9-.6 1h-.1c-.4.1-1.1-.2-1.7-1.4.3 0 .7.2.9.4l-.6-1.9c-.1.4-.3.8-.5 1.1-.1-.4-.1-.9 0-1.3l-1.2.4c.9 1.3 1.5 2.7 1.7 4.2 2-.3 3.9-.4 5.9-.4"/></g><path class="st11" d="M202 840.6h97.7v30H202v-30z"/><path class="st0" d="M402 840.6h160v220H402v-220z"/><path class="st1" d="M402 840.6h160v220H402v-220z"/><path class="st2" d="M402 840.6h160v30H402v-30z"/><text transform="translate(412 887.94)" class="st3 st4">Form page</text><path class="st5" d="M412 1010.6h80v25h-80v-25z"/><text transform="translate(427.02 1026.44)" class="st0 st3 st4">Continue</text><path class="st0" d="M412 900.6h110v15H412v-15z"/><path class="st6" d="M412 900.6h110v15H412v-15z"/><path class="st0" d="M412 920.6h110v40H412v-40z"/><path class="st6" d="M412 920.6h110v40H412v-40z"/><path class="st0" d="M412 965.6h110v15H412v-15z"/><path class="st6" d="M412 965.6h110v15H412v-15z"/><path class="st0" d="M412 985.6h110v15H412v-15z"/><path class="st6" d="M412 985.6h110v15H412v-15z"/><defs><path id="SVGID_25_" d="M402 840.6h97.7v30H402z"/></defs><clipPath id="SVGID_26_"><use xlink:href="#SVGID_25_" overflow="visible"/></clipPath><g clip-path="url(#SVGID_26_)"><path class="st0" d="M475.3 860.5h2v-3l1.3-1.4 2.6 4.4h2.3l-3.7-6 3.4-3.9h-2.5l-3.5 4.3v-4.3h-2l.1 9.9z"/></g><path class="st11" d="M402 840.6h97.7v30H402v-30z"/><defs><path id="SVGID_27_" d="M402 840.6h97.6v30H402z"/></defs><clipPath id="SVGID_28_"><use xlink:href="#SVGID_27_" overflow="visible"/></clipPath><g clip-path="url(#SVGID_28_)"><path class="st0" d="M468.5 858.7c-.2-.1-.5-.2-.7-.4-.2-.2-.3-.4-.4-.7-.1-.3-.2-.6-.2-.9v-6.1h-2v6.4c0 .5.1 1 .3 1.5.2.4.5.8.8 1.1.4.3.8.6 1.3.7.5.2 1.1.3 1.6.2.6 0 1.1-.1 1.6-.2.5-.2.9-.4 1.3-.7.4-.3.6-.7.8-1.1.2-.5.3-1 .3-1.5v-6.4h-2v6.1c0 .3 0 .6-.2.9-.1.3-.2.5-.4.7-.2.2-.4.3-.6.4-.3.1-.5.1-.8.1-.3 0-.5 0-.7-.1m-7.3 1.2c.1.2.2.3.3.4.1.1.3.2.4.3.2.1.3.1.5.1.3 0 .6-.1.9-.4.2-.2.4-.6.4-.9 0-.2 0-.3-.1-.5s-.2-.3-.3-.4c-.2-.2-.5-.4-.9-.4-.2 0-.3 0-.5.1-.1.1-.3.2-.4.3-.1.1-.2.2-.3.4-.1.1-.1.3-.1.5s.1.3.1.5M458.1 860.5l2.8-9.9h-2.2l-1.9 7.4h-.1l-1.9-7.4h-2.2l2.8 9.9h2.7zM445.1 850.9c-.6.3-1.1.6-1.5 1.1-.4.5-.7 1-.9 1.6-.4 1.3-.4 2.7 0 4 .2.6.5 1.1.9 1.6s.9.8 1.5 1.1c.6.3 1.3.4 2 .4s1.4-.1 2-.4c.6-.3 1.1-.6 1.5-1.1.4-.5.7-1 .9-1.6.4-1.3.4-2.7 0-4-.2-.6-.5-1.1-.9-1.6s-.9-.8-1.5-1.1c-.6-.3-1.3-.4-2-.4s-1.4.1-2 .4m.8 7.7c-.3-.2-.6-.4-.8-.7-.2-.3-.4-.6-.5-1-.1-.4-.2-.9-.2-1.3v-.1c0-.4.1-.9.2-1.3s.3-.7.5-1c.2-.3.5-.5.8-.7.4-.2.8-.3 1.2-.2.4 0 .8.1 1.1.2.3.2.6.4.8.7.2.3.4.6.5 1 .1.4.2.9.2 1.3v.1c0 .4-.1.9-.2 1.3s-.3.7-.5 1c-.2.3-.5.5-.8.7-.4.2-.7.2-1.1.2-.4 0-.8 0-1.2-.2m-11.8-3.1c0-.4.1-.8.2-1.2.1-.4.3-.7.5-1 .2-.3.5-.5.8-.7.4-.2.8-.3 1.2-.3.3 0 .5 0 .8.1l.6.3c.2.1.3.3.5.5.1.2.3.4.4.6l1.8-1c-.2-.4-.4-.7-.7-1-.3-.3-.6-.5-.9-.7-.4-.2-.8-.4-1.2-.5-.4-.1-.9-.2-1.3-.2-.7 0-1.4.1-2 .4-.6.3-1.1.6-1.5 1.1-.4.5-.8 1-1 1.6-.2.6-.3 1.3-.3 2s.1 1.4.3 2c.2.6.5 1.1.9 1.6s.9.8 1.4 1.1c.6.3 1.3.4 1.9.4.3 0 .6 0 .9-.1.3-.1.5-.1.8-.3.2-.1.4-.2.6-.4l.5-.5v1.2h1.8v-5.4h-4.5v1.5h2.5v.1c0 .2 0 .5-.1.7-.1.3-.2.5-.4.7-.2.2-.4.4-.7.5-.4.2-.7.2-1.1.2-.4 0-.8-.1-1.2-.3-.3-.2-.6-.4-.8-.7-.2-.3-.4-.6-.5-1-.2-.4-.3-.8-.2-1.3zm-20.9-2.9c.4.2 1 0 1.1-.5.2-.4 0-1-.5-1.1s-1 0-1.1.5c-.1.4.1.9.5 1.1m-2 1.2c.4.2 1 0 1.1-.5.2-.4 0-1-.5-1.1-.4-.2-1 0-1.1.5-.1.4.1.9.5 1.1m-.6 2.2c.4.2 1 0 1.1-.5.2-.4 0-.9-.4-1.1-.4-.2-1 0-1.1.5-.2.4 0 .9.4 1.1m4.8-2.7c.4.2 1 0 1.1-.5.2-.4 0-1-.5-1.1-.4-.2-1 0-1.1.5-.1.4.1.9.5 1.1m8-.7c-.4.2-.9 0-1.1-.4-.2-.4 0-1 .5-1.1.4-.2 1 0 1.1.5.1.3-.1.8-.5 1m1.9 1.2c-.4.2-1 0-1.1-.5-.2-.4 0-1 .5-1.1.4-.2 1 0 1.1.5.2.4 0 .9-.5 1.1m.6 2.2c-.4.2-1 0-1.1-.5-.2-.4 0-1 .5-1.1.4-.2 1 0 1.1.5.1.4-.1.9-.5 1.1m-4.7-2.7c-.4.2-1 0-1.1-.5-.2-.4 0-1 .5-1.1.4-.2 1 0 1.1.5.1.4-.1.9-.5 1.1m-2.5-2.2l1.1.6V850l-1.1.3-.1-.1.4-1.4h-1.6l.5 1.4-.1.1-1.1-.3v1.6l1.1-.6.1.1-.6 1.9v.3c0 .5.4.9.9 1h.3c.5-.1.9-.5.9-1v-.3l-.7-1.9c.1 0 .1 0 0 0m-.4 9.3c1.9 0 3.9.1 5.8.4.3-1.5.9-2.9 1.7-4.2l-1.2-.4c.1.4.1.9 0 1.3-.3-.3-.4-.7-.5-1.1l-.6 1.9c.3-.2.6-.4.9-.4-.5 1.2-1.2 1.5-1.7 1.4-.5-.1-.8-.5-.7-.9v-.1c.1-.6.7-.7 1-.1.5-1.1-.4-1.4-1-1.1.8-.6 1-1.6.4-2.4 0-.1-.1-.1-.2-.2-.9.6-1.1 1.7-.6 2.6-.6-.7-1.5-.3-1.2.8.4-.7 1-.2.9.4s-.8 1-1.7.9c-1.3-.1-1.3-1-1.4-1.7.3-.1.9.2 1.4.9l.2-2c-.4.4-.9.7-1.5.7.3-.5.6-1 1-1.4H417c.4.4.7.9 1 1.4-.6 0-1.1-.2-1.5-.7l.2 2c.5-.7 1-1 1.4-.9 0 .7-.1 1.6-1.4 1.7-.9.1-1.6-.3-1.7-.9s.5-1 .9-.4c.3-1.1-.6-1.4-1.2-.8.6-.9.3-2-.5-2.6-.7.7-.6 1.8.1 2.5.1.1.1.1.2.1-.6-.3-1.5 0-1 1.1.3-.7.9-.5 1 .1.1.4-.2.9-.6 1h-.1c-.4.1-1.1-.2-1.7-1.4.3 0 .7.2.9.4l-.6-1.9c-.1.4-.3.8-.5 1.1-.1-.4-.1-.9 0-1.3l-1.2.4c.9 1.3 1.5 2.7 1.7 4.2 2-.3 3.9-.4 5.9-.4"/></g><path class="st11" d="M402 840.6h97.7v30H402v-30z"/><path class="st0" d="M602 840.6h160v220H602v-220z"/><path class="st1" d="M602 840.6h160v220H602v-220z"/><path class="st7" d="M612 880.6h120v70H612v-70z"/><text transform="translate(636.18 910.28)" class="st0 st3 st4">Confirm</text><text transform="translate(680.22 910.28)" class="st0 st3 st4">a</text><text transform="translate(686.17 910.28)" class="st0 st3 st4">tion</text><text transform="translate(658.66 927.59)" class="st0 st3 st4">page</text><path class="st8" d="M612 960.6h120m-120 11.3h85.7M612 983.3h120m-120 11.3h85.7"/><path d="M602 840.6h160v30H602v-30z"/><defs><path id="SVGID_29_" d="M602 840.6h97.7v30H602z"/></defs><clipPath id="SVGID_30_"><use xlink:href="#SVGID_29_" overflow="visible"/></clipPath><g clip-path="url(#SVGID_30_)"><path class="st0" d="M675.3 860.5h2v-3l1.3-1.4 2.6 4.4h2.3l-3.7-6 3.4-3.9h-2.5l-3.5 4.3v-4.3h-2l.1 9.9z"/></g><path class="st11" d="M602 840.6h97.7v30H602v-30z"/><defs><path id="SVGID_31_" d="M602 840.6h97.6v30H602z"/></defs><clipPath id="SVGID_32_"><use xlink:href="#SVGID_31_" overflow="visible"/></clipPath><g clip-path="url(#SVGID_32_)"><path class="st0" d="M668.5 858.7c-.2-.1-.5-.2-.7-.4-.2-.2-.3-.4-.4-.7-.1-.3-.2-.6-.2-.9v-6.1h-2v6.4c0 .5.1 1 .3 1.5.2.4.5.8.8 1.1.4.3.8.6 1.3.7.5.2 1.1.3 1.6.2.6 0 1.1-.1 1.6-.2.5-.2.9-.4 1.3-.7.4-.3.6-.7.8-1.1.2-.5.3-1 .3-1.5v-6.4h-2v6.1c0 .3 0 .6-.2.9-.1.3-.2.5-.4.7-.2.2-.4.3-.6.4-.3.1-.5.1-.8.1-.3 0-.5 0-.7-.1m-7.3 1.2c.1.2.2.3.3.4.1.1.3.2.4.3.2.1.3.1.5.1.3 0 .6-.1.9-.4.2-.2.4-.6.4-.9 0-.2 0-.3-.1-.5s-.2-.3-.3-.4c-.2-.2-.5-.4-.9-.4-.2 0-.3 0-.5.1-.1.1-.3.2-.4.3-.1.1-.2.2-.3.4-.1.1-.1.3-.1.5s.1.3.1.5M658.1 860.5l2.8-9.9h-2.2l-1.9 7.4h-.1l-1.9-7.4h-2.2l2.8 9.9h2.7zM645.1 850.9c-.6.3-1.1.6-1.5 1.1-.4.5-.7 1-.9 1.6-.4 1.3-.4 2.7 0 4 .2.6.5 1.1.9 1.6s.9.8 1.5 1.1c.6.3 1.3.4 2 .4s1.4-.1 2-.4c.6-.3 1.1-.6 1.5-1.1.4-.5.7-1 .9-1.6.4-1.3.4-2.7 0-4-.2-.6-.5-1.1-.9-1.6s-.9-.8-1.5-1.1c-.6-.3-1.3-.4-2-.4s-1.4.1-2 .4m.8 7.7c-.3-.2-.6-.4-.8-.7-.2-.3-.4-.6-.5-1-.1-.4-.2-.9-.2-1.3v-.1c0-.4.1-.9.2-1.3s.3-.7.5-1c.2-.3.5-.5.8-.7.4-.2.8-.3 1.2-.2.4 0 .8.1 1.1.2.3.2.6.4.8.7.2.3.4.6.5 1 .1.4.2.9.2 1.3v.1c0 .4-.1.9-.2 1.3s-.3.7-.5 1c-.2.3-.5.5-.8.7-.4.2-.7.2-1.1.2-.4 0-.8 0-1.2-.2m-11.8-3.1c0-.4.1-.8.2-1.2.1-.4.3-.7.5-1 .2-.3.5-.5.8-.7.4-.2.8-.3 1.2-.3.3 0 .5 0 .8.1l.6.3c.2.1.3.3.5.5.1.2.3.4.4.6l1.8-1c-.2-.4-.4-.7-.7-1-.3-.3-.6-.5-.9-.7-.4-.2-.8-.4-1.2-.5-.4-.1-.9-.2-1.3-.2-.7 0-1.4.1-2 .4-.6.3-1.1.6-1.5 1.1-.4.5-.8 1-1 1.6-.2.6-.3 1.3-.3 2s.1 1.4.3 2c.2.6.5 1.1.9 1.6s.9.8 1.4 1.1c.6.3 1.3.4 1.9.4.3 0 .6 0 .9-.1.3-.1.5-.1.8-.3.2-.1.4-.2.6-.4l.5-.5v1.2h1.8v-5.4h-4.5v1.5h2.5v.1c0 .2 0 .5-.1.7-.1.3-.2.5-.4.7-.2.2-.4.4-.7.5-.4.2-.7.2-1.1.2-.4 0-.8-.1-1.2-.3-.3-.2-.6-.4-.8-.7-.2-.3-.4-.6-.5-1-.2-.4-.3-.8-.2-1.3zm-20.9-2.9c.4.2 1 0 1.1-.5.2-.4 0-1-.5-1.1-.4-.2-1 0-1.1.5-.1.4.1.9.5 1.1m-2 1.2c.4.2 1 0 1.1-.5.2-.4 0-1-.5-1.1-.4-.2-1 0-1.1.5-.1.4.1.9.5 1.1m-.5 2.2c.4.2 1 0 1.1-.5.2-.4 0-.9-.4-1.1-.4-.2-1 0-1.1.5-.3.4-.1.9.4 1.1m4.7-2.7c.4.2 1 0 1.1-.5.2-.4 0-1-.5-1.1-.4-.2-1 0-1.1.5-.1.4.1.9.5 1.1m8-.7c-.4.2-.9 0-1.1-.4-.2-.4 0-1 .5-1.1.4-.2 1 0 1.1.5.1.3-.1.8-.5 1m1.9 1.2c-.4.2-1 0-1.1-.5-.2-.4 0-1 .5-1.1.4-.2 1 0 1.1.5.2.4 0 .9-.5 1.1m.6 2.2c-.4.2-1 0-1.1-.5-.2-.4 0-1 .5-1.1.4-.2 1 0 1.1.5.1.4-.1.9-.5 1.1m-4.7-2.7c-.4.2-1 0-1.1-.5-.2-.4 0-1 .5-1.1.4-.2 1 0 1.1.5.1.4-.1.9-.5 1.1m-2.5-2.2l1.1.6V850l-1.1.3-.1-.1.4-1.4h-1.6l.5 1.4-.1.1-1.1-.3v1.6l1.1-.6.1.1-.6 1.9v.3c0 .5.4.9.9 1h.3c.5-.1.9-.5.9-1v-.3l-.7-1.9c.1 0 .1 0 0 0m-.4 9.3c1.9 0 3.9.1 5.8.4.3-1.5.9-2.9 1.7-4.2l-1.2-.4c.1.4.1.9 0 1.3-.3-.3-.4-.7-.5-1.1l-.6 1.9c.3-.2.6-.4.9-.4-.5 1.2-1.2 1.5-1.7 1.4-.5-.1-.8-.5-.7-.9v-.1c.1-.6.7-.7 1-.1.5-1.1-.4-1.4-1-1.1.8-.6 1-1.6.4-2.4 0-.1-.1-.1-.2-.2-.9.6-1.1 1.7-.6 2.6-.6-.7-1.5-.3-1.2.8.4-.7 1-.2.9.4s-.8 1-1.7.9c-1.3-.1-1.3-1-1.4-1.7.3-.1.9.2 1.4.9l.2-2c-.4.4-.9.7-1.5.7.3-.5.6-1 1-1.4H617c.4.4.7.9 1 1.4-.6 0-1.1-.2-1.5-.7l.2 2c.5-.7 1-1 1.3-.9 0 .7-.1 1.6-1.4 1.7-.9.1-1.6-.3-1.7-.9s.5-1 .9-.4c.3-1.1-.6-1.4-1.2-.8.6-.9.3-2-.5-2.6-.7.7-.6 1.8.1 2.5.1.1.1.1.2.1-.6-.3-1.5 0-1 1.1.3-.7.9-.5 1 .1.1.4-.2.9-.6 1h-.1c-.4.1-1.1-.2-1.7-1.4.3 0 .7.2.9.4l-.6-1.9c-.1.4-.3.8-.5 1.1-.1-.4-.1-.9 0-1.3l-1.2.4c.9 1.3 1.5 2.7 1.7 4.2 2.1-.3 4-.4 6-.4"/></g><path class="st11" d="M602 840.6h97.7v30H602v-30z"/><path d="M602 80.6h141.1" fill="none" stroke="#0a0c0c" stroke-width="4" stroke-linecap="round" stroke-linejoin="round"/><path d="M755.9 80.6l-12.8-4.8v9.6l12.8-4.8z" fill="#0a0c0c"/><path d="M755.9 80.6l-12.8-4.8v9.6l12.8-4.8z" fill="none" stroke="#0a0c0c" stroke-width="4" stroke-miterlimit="10"/><path class="st2" d="M925.5 40.1c11.6 11.8 11.6 30.7 0 42.4-11.4 11.6-30.1 11.7-41.7.3l-.3-.3c-11.6-11.8-11.6-30.7 0-42.4 11.4-11.6 30.1-11.7 41.7-.3.2.1.2.2.3.3"/><text transform="translate(878.28 107.59)" class="st2 st34 st4">text-colour</text><path d="M1065.5 40.1c11.6 11.8 11.6 30.7 0 42.4-11.4 11.6-30.1 11.7-41.7.3l-.3-.3c-11.6-11.8-11.6-30.7 0-42.4 11.4-11.6 30.1-11.7 41.7-.3.2.1.2.2.3.3" fill="#6f777b"/><text transform="translate(987.94 107.59)" class="st2 st34 st4">secondary-text-colour</text><path class="st17" d="M1205.5 40.1c11.6 11.8 11.6 30.7 0 42.4-11.4 11.6-30.1 11.7-41.7.3l-.3-.3c-11.6-11.8-11.6-30.7 0-42.4 11.4-11.6 30.1-11.7 41.7-.3.2.1.2.2.3.3"/><text transform="translate(1159.28 107.59)" class="st2 st34 st4">link-colour</text><path d="M1345.5 40.1c11.6 11.8 11.6 30.7 0 42.4-11.4 11.6-30.1 11.7-41.7.3l-.3-.3c-11.6-11.8-11.6-30.7 0-42.4 11.4-11.6 30.1-11.7 41.7-.3.2.1.2.2.3.3" fill="#238ac5"/><text transform="translate(1282.27 107.59)" class="st2 st34 st4">link-hove</text><text transform="translate(1331.17 107.59)" class="st2 st34 st4">r</text><text transform="translate(1334.52 107.59)" class="st2 st34 st4">-colour</text><path d="M925 155.1c11.6 11.8 11.6 30.7 0 42.4-11.4 11.6-30.1 11.7-41.7.3l-.3-.3c-11.6-11.8-11.6-30.7 0-42.4 11.4-11.6 30.1-11.7 41.7-.3l.3.3" fill="#4c2793"/><text transform="translate(859.11 222.59)" class="st2 st34 st4">link-visited-colour</text><path class="st38" d="M1065 155.1c11.6 11.8 11.6 30.7 0 42.4-11.4 11.6-30.1 11.7-41.7.3l-.3-.3c-11.6-11.8-11.6-30.7 0-42.4 11.4-11.6 30.1-11.7 41.7-.3l.3.3"/><text transform="translate(1010.55 222.59)" class="st2 st34 st4">bo</text><text transform="translate(1024.55 222.59)" class="st2 st34 st4">r</text><text transform="translate(1028.35 222.59)" class="st2 st34 st4">de</text><text transform="translate(1041.91 222.59)" class="st2 st34 st4">r</text><text transform="translate(1045.24 222.59)" class="st2 st34 st4">-colour</text><path d="M1205 155.1c11.6 11.8 11.6 30.7 0 42.4-11.4 11.6-30.1 11.7-41.7.3l-.3-.3c-11.6-11.8-11.6-30.7 0-42.4 11.4-11.6 30.1-11.7 41.7-.3l.3.3" fill="#fdbf38"/><text transform="translate(1153.11 222.59)" class="st2 st34 st4">focus-colour</text><path class="st17" d="M1345 155.1c11.6 11.8 11.6 30.7 0 42.4-11.4 11.6-30.1 11.7-41.7.3l-.3-.3c-11.6-11.8-11.6-30.7 0-42.4 11.4-11.6 30.1-11.7 41.7-.3l.3.3"/><text transform="translate(1291.55 222.59)" class="st2 st34 st4">govuk-colour</text><path class="st9" d="M927.5 270c11.6 11.8 11.6 30.7 0 42.4-11.4 11.6-30.1 11.7-41.7.3l-.3-.3c-11.6-11.8-11.6-30.7 0-42.4 11.4-11.6 30.1-11.7 41.7-.3.2.2.2.3.3.3"/><text transform="translate(878.17 337.59)" class="st2 st34 st4">er</text><text transform="translate(888.61 337.59)" class="st2 st34 st4">r</text><text transform="translate(892.4 337.59)" class="st2 st34 st4">o</text><text transform="translate(899.29 337.59)" class="st2 st34 st4">r</text><text transform="translate(902.64 337.59)" class="st2 st34 st4">-colour</text><path class="st2" d="M925.5 460c11.6 11.8 11.6 30.7 0 42.4-11.4 11.6-30.1 11.7-41.7.3l-.3-.3c-11.6-11.8-11.6-30.7 0-42.4 11.4-11.6 30.1-11.7 41.7-.3.2.2.2.3.3.3"/><text transform="translate(893.05 527.59)" class="st2 st34 st4">black</text><path d="M1065.5 460c11.6 11.8 11.6 30.7 0 42.4-11.4 11.6-30.1 11.7-41.7.3l-.3-.3c-11.6-11.8-11.6-30.7 0-42.4 11.4-11.6 30.1-11.7 41.7-.3.2.2.2.3.3.3" fill="#6d7579"/><text transform="translate(1029.16 527.59)" class="st2 st34 st4">G</text><text transform="translate(1038.27 527.59)" class="st2 st34 st4">r</text><text transform="translate(1042.06 527.59)" class="st2 st34 st4">ey-1</text><path class="st38" d="M1205.5 460c11.6 11.8 11.6 30.7 0 42.4-11.4 11.6-30.1 11.7-41.7.3l-.3-.3c-11.6-11.8-11.6-30.7 0-42.4 11.4-11.6 30.1-11.7 41.7-.3.2.2.2.3.3.3"/><text transform="translate(1170.27 527.59)" class="st2 st34 st4">g</text><text transform="translate(1177.16 527.59)" class="st2 st34 st4">r</text><text transform="translate(1180.95 527.59)" class="st2 st34 st4">ey-2</text><path d="M1346 460c11.6 11.8 11.6 30.7 0 42.4-11.4 11.6-30.1 11.7-41.7.3l-.3-.3c-11.6-11.8-11.6-30.7 0-42.4 11.4-11.6 30.1-11.7 41.7-.3.1.2.2.3.3.3" fill="#dddfe1"/><text transform="translate(1310.77 527.59)" class="st2 st34 st4">g</text><text transform="translate(1317.66 527.59)" class="st2 st34 st4">r</text><text transform="translate(1321.45 527.59)" class="st2 st34 st4">ey-3</text><path d="M925.7 555c11.6 11.8 11.6 30.7 0 42.4-11.5 11.6-30.1 11.7-41.7.3l-.3-.3c-11.6-11.8-11.6-30.7 0-42.4 11.5-11.6 30.1-11.7 41.7-.3.2.2.2.3.3.3" fill="#f7f7f7"/><text transform="translate(890.46 622.59)" class="st2 st34 st4">g</text><text transform="translate(897.35 622.59)" class="st2 st34 st4">r</text><text transform="translate(901.14 622.59)" class="st2 st34 st4">ey-4</text><path class="st0" d="M1065.7 555c11.6 11.8 11.6 30.7 0 42.4-11.5 11.6-30.1 11.7-41.7.3l-.3-.3c-11.6-11.8-11.6-30.7 0-42.4 11.5-11.6 30.1-11.7 41.7-.3.2.2.2.3.3.3"/><text transform="translate(1033.36 622.59)" class="st2 st34 st4">white</text><path class="st9" d="M922.8 740c11.6 11.8 11.6 30.7 0 42.4-11.4 11.6-30.1 11.7-41.7.3l-.3-.3c-11.6-11.8-11.6-30.7 0-42.4 11.4-11.6 30.1-11.7 41.7-.3l.3.3"/><text transform="translate(896.14 807.59)" class="st2 st34 st4">r</text><text transform="translate(899.92 807.59)" class="st2 st34 st4">ed</text><path d="M1062.8 740c11.6 11.8 11.6 30.7 0 42.4-11.4 11.6-30.1 11.7-41.7.3l-.3-.3c-11.6-11.8-11.6-30.7 0-42.4 11.4-11.6 30.1-11.7 41.7-.3l.3.3" fill="#e12d2d"/><text transform="translate(1018.25 807.59)" class="st2 st34 st4">bright-</text><text transform="translate(1054.03 807.59)" class="st2 st34 st4">r</text><text transform="translate(1057.81 807.59)" class="st2 st34 st4">ed</text><path d="M1202.8 740c11.6 11.8 11.6 30.7 0 42.4-11.4 11.6-30.1 11.7-41.7.3l-.3-.3c-11.6-11.8-11.6-30.7 0-42.4 11.4-11.6 30.1-11.7 41.7-.3l.3.3" fill="#f5772c"/><text transform="translate(1166.15 807.59)" class="st2 st34 st4">orange</text><path d="M1342.8 740c11.6 11.8 11.6 30.7 0 42.4-11.4 11.6-30.1 11.7-41.7.3l-.3-.3c-11.6-11.8-11.6-30.7 0-42.4 11.4-11.6 30.1-11.7 41.7-.3l.3.3" fill="#b48740"/><text transform="translate(1308.03 807.59)" class="st2 st34 st4">b</text><text transform="translate(1315.15 807.59)" class="st2 st34 st4">r</text><text transform="translate(1318.94 807.59)" class="st2 st34 st4">own</text><path d="M922.5 845c11.6 11.8 11.6 30.7 0 42.4-11.4 11.6-30.1 11.7-41.7.3l-.3-.3c-11.6-11.8-11.6-30.7 0-42.4 11.4-11.6 30.1-11.7 41.7-.3.2.2.2.3.3.3" fill="#ffbe47"/><text transform="translate(887.62 912.59)" class="st2 st34 st4">yellow</text><path d="M1062.5 845c11.6 11.8 11.6 30.7 0 42.4-11.4 11.6-30.1 11.7-41.7.3l-.3-.3c-11.6-11.8-11.6-30.7 0-42.4 11.4-11.6 30.1-11.7 41.7-.3.2.2.2.3.3.3" fill="#84984b"/><text transform="translate(1015.72 912.59)" class="st2 st34 st4">light-g</text><text transform="translate(1049.94 912.59)" class="st2 st34 st4">r</text><text transform="translate(1053.72 912.59)" class="st2 st34 st4">een</text><path class="st5" d="M1202.5 845c11.6 11.8 11.6 30.7 0 42.4-11.4 11.6-30.1 11.7-41.7.3l-.3-.3c-11.6-11.8-11.6-30.7 0-42.4 11.4-11.6 30.1-11.7 41.7-.3.2.2.2.3.3.3"/><text transform="translate(1169.39 912.59)" class="st2 st34 st4">g</text><text transform="translate(1176.28 912.59)" class="st2 st34 st4">r</text><text transform="translate(1180.07 912.59)" class="st2 st34 st4">een</text><path class="st7" d="M1342.5 845c11.6 11.8 11.6 30.7 0 42.4-11.4 11.6-30.1 11.7-41.7.3l-.3-.3c-11.6-11.8-11.6-30.7 0-42.4 11.4-11.6 30.1-11.7 41.7-.3.2.2.2.3.3.3"/><text transform="translate(1299.49 912.59)" class="st2 st34 st4">tu</text><text transform="translate(1309.94 912.59)" class="st2 st34 st4">r</text><text transform="translate(1313.73 912.59)" class="st2 st34 st4">quoise</text><path d="M922.5 945.1c11.6 11.8 11.6 30.7 0 42.4-11.4 11.6-30.1 11.7-41.7.3l-.3-.3c-11.6-11.8-11.6-30.7 0-42.4 11.4-11.6 30.1-11.7 41.7-.3.2.1.2.2.3.3" fill="#2b8bc3"/><text transform="translate(879.38 1012.59)" class="st2 st34 st4">light-blue</text><path d="M1062.5 945.1c11.6 11.8 11.6 30.7 0 42.4-11.4 11.6-30.1 11.7-41.7.3l-.3-.3c-11.6-11.8-11.6-30.7 0-42.4 11.4-11.6 30.1-11.7 41.7-.3.2.1.2.2.3.3" fill="#005ea4"/><text transform="translate(1033.05 1012.59)" class="st2 st34 st4">blue</text><path d="M1202.5 945.1c11.6 11.8 11.6 30.7 0 42.4-11.4 11.6-30.1 11.7-41.7.3l-.3-.3c-11.6-11.8-11.6-30.7 0-42.4 11.4-11.6 30.1-11.7 41.7-.3.2.1.2.2.3.3" fill="#6f72ae"/><text transform="translate(1153.83 1012.59)" class="st2 st34 st4">light-purple</text><path d="M1342.5 945.1c11.6 11.8 11.6 30.7 0 42.4-11.4 11.6-30.1 11.7-41.7.3l-.3-.3c-11.6-11.8-11.6-30.7 0-42.4 11.4-11.6 30.1-11.7 41.7-.3.2.1.2.2.3.3" fill="#2e358a"/><text transform="translate(1307.5 1012.59)" class="st2 st34 st4">purple</text><path d="M924.8 1045.1c11.6 11.8 11.6 30.7 0 42.4-11.4 11.6-30.1 11.7-41.7.3l-.3-.3c-11.6-11.8-11.6-30.7 0-42.4 11.4-11.6 30.1-11.7 41.7-.3.2.1.3.2.3.3" fill="#902b87"/><text transform="translate(871.91 1112.59)" class="st2 st34 st4">bright-purple</text><path d="M1064.8 1045.1c11.6 11.8 11.6 30.7 0 42.4-11.4 11.6-30.1 11.7-41.7.3l-.3-.3c-11.6-11.8-11.6-30.7 0-42.4 11.4-11.6 30.1-11.7 41.7-.3.2.1.3.2.3.3" fill="#d43880"/><text transform="translate(1035.47 1112.59)" class="st2 st34 st4">pink</text><path d="M1204.8 1045.1c11.6 11.8 11.6 30.7 0 42.4-11.4 11.6-30.1 11.7-41.7.3l-.3-.3c-11.6-11.8-11.6-30.7 0-42.4 11.4-11.6 30.1-11.7 41.7-.3.2.1.3.2.3.3" fill="#f398bd"/><text transform="translate(1161.8 1112.59)" class="st2 st34 st4">light-pink</text><text transform="translate(880 17)" class="st3 st55" letter-spacing="-1">T</text><text transform="translate(890 17)" class="st3 st55">ext colours</text><text transform="translate(880 437)" class="st3 st55">Greys</text><text transform="translate(876.81 716)" class="st3 st55">Extended colours</text><g><path d="M220.4 122.5c3 0 5.5 2.5 5.5 5.5s-2.5 5.5-5.5 5.5-5.5-2.5-5.5-5.5 2.5-5.5 5.5-5.5m0-2c-4.1 0-7.5 3.4-7.5 7.5s3.4 7.5 7.5 7.5 7.5-3.4 7.5-7.5-3.3-7.5-7.5-7.5z"/><path class="st8" d="M322.7 128h-87.9"/><path d="M220.4 142.5c3 0 5.5 2.5 5.5 5.5s-2.5 5.5-5.5 5.5-5.5-2.5-5.5-5.5 2.5-5.5 5.5-5.5m0-2c-4.1 0-7.5 3.4-7.5 7.5s3.4 7.5 7.5 7.5 7.5-3.4 7.5-7.5-3.3-7.5-7.5-7.5z"/><path class="st8" d="M322.7 148h-87.9"/><path d="M220.4 162.5c3 0 5.5 2.5 5.5 5.5s-2.5 5.5-5.5 5.5-5.5-2.5-5.5-5.5 2.5-5.5 5.5-5.5m0-2c-4.1 0-7.5 3.4-7.5 7.5s3.4 7.5 7.5 7.5 7.5-3.4 7.5-7.5-3.3-7.5-7.5-7.5z"/><path class="st8" d="M322.7 168h-87.9"/><path d="M220.4 182.5c3 0 5.5 2.5 5.5 5.5s-2.5 5.5-5.5 5.5-5.5-2.5-5.5-5.5 2.5-5.5 5.5-5.5m0-2c-4.1 0-7.5 3.4-7.5 7.5s3.4 7.5 7.5 7.5 7.5-3.4 7.5-7.5-3.3-7.5-7.5-7.5z"/><path class="st8" d="M322.7 188h-87.9"/></g><g><path d="M219.5 902.6c3 0 5.5 2.5 5.5 5.5s-2.5 5.5-5.5 5.5-5.5-2.5-5.5-5.5 2.5-5.5 5.5-5.5m0-2c-4.1 0-7.5 3.4-7.5 7.5s3.4 7.5 7.5 7.5 7.5-3.4 7.5-7.5-3.4-7.5-7.5-7.5z"/><path class="st8" d="M321.8 908.1h-87.9"/><path d="M219.5 922.6c3 0 5.5 2.5 5.5 5.5s-2.5 5.5-5.5 5.5-5.5-2.5-5.5-5.5 2.5-5.5 5.5-5.5m0-2c-4.1 0-7.5 3.4-7.5 7.5s3.4 7.5 7.5 7.5 7.5-3.4 7.5-7.5-3.4-7.5-7.5-7.5z"/><path class="st8" d="M321.8 928.1h-87.9"/><path d="M219.5 942.6c3 0 5.5 2.5 5.5 5.5s-2.5 5.5-5.5 5.5-5.5-2.5-5.5-5.5 2.5-5.5 5.5-5.5m0-2c-4.1 0-7.5 3.4-7.5 7.5s3.4 7.5 7.5 7.5 7.5-3.4 7.5-7.5-3.4-7.5-7.5-7.5z"/><path class="st8" d="M321.8 948.1h-87.9"/><path d="M219.5 962.6c3 0 5.5 2.5 5.5 5.5s-2.5 5.5-5.5 5.5-5.5-2.5-5.5-5.5 2.5-5.5 5.5-5.5m0-2c-4.1 0-7.5 3.4-7.5 7.5s3.4 7.5 7.5 7.5 7.5-3.4 7.5-7.5-3.4-7.5-7.5-7.5z"/><path class="st8" d="M321.8 968.1h-87.9"/></g></svg>