<svg id="Layer_1" data-name="Layer 1" xmlns="http://www.w3.org/2000/svg" viewBox="0 0 1372.74 1118.37"><defs><style>.cls-1,.cls-11,.cls-18,.cls-19,.cls-27,.cls-3,.cls-8{fill:none}.cls-2,.cls-5{fill:#fff}.cls-3{stroke:#0b0c0c}.cls-11,.cls-18,.cls-19,.cls-27,.cls-3,.cls-8{stroke-linecap:square;stroke-miterlimit:10}.cls-19,.cls-3{stroke-width:4px}.cls-4,.cls-44{fill:#0b0c0c}.cls-44,.cls-5,.cls-6{font-size:12px}.cls-5,.cls-6,.cls-72{font-family:GDSTransportWebsite-Bold,GDS Transport Website;font-weight:700}.cls-7{fill:#006435}.cls-11,.cls-8{stroke:#6f777b}.cls-9{fill:#28a096}.cls-10{letter-spacing:-.02em}.cls-11,.cls-18,.cls-27{stroke-width:5px}.cls-12{fill:#b20d17}.cls-18{stroke:#095ca6}.cls-19{stroke:#000}.cls-22{fill:#bec0c2}.cls-23{fill:#095ca6}.cls-27{stroke:#fff}.cls-44{font-family:HelveticaNeue,Helvetica Neue}.cls-49{letter-spacing:-.02em}.cls-50,.cls-55{letter-spacing:0}.cls-58{letter-spacing:-.02em}.cls-72{font-size:20px}</style><clipPath id="clip-path" transform="translate(-95 -83)"><path class="cls-1" d="M497 663.59h97.71v30H497z"/></clipPath><clipPath id="clip-path-2" transform="translate(-95 -83)"><path class="cls-1" d="M497.04 663.61h97.64v29.96h-97.64z"/></clipPath><clipPath id="clip-path-3" transform="translate(-95 -83)"><path class="cls-1" d="M697 663.59h97.71v30H697z"/></clipPath><clipPath id="clip-path-4" transform="translate(-95 -83)"><path class="cls-1" d="M697.04 663.61h97.64v29.96h-97.64z"/></clipPath><clipPath id="clip-path-5" transform="translate(-95 -83)"><path class="cls-1" d="M297 663.59h97.71v30H297z"/></clipPath><clipPath id="clip-path-6" transform="translate(-95 -83)"><path class="cls-1" d="M297.04 663.61h97.64v29.96h-97.64z"/></clipPath><clipPath id="clip-path-7" transform="translate(-95 -83)"><path class="cls-1" d="M97 923.59h97.71v30H97z"/></clipPath><clipPath id="clip-path-8" transform="translate(-95 -83)"><path class="cls-1" d="M97.04 923.61h97.64v29.96H97.04z"/></clipPath><clipPath id="clip-path-9" transform="translate(-95 -83)"><path class="cls-1" d="M97 663.59h100v30.7H97z"/></clipPath><clipPath id="clip-path-10" transform="translate(-95 -83)"><path class="cls-1" d="M97.04 663.61h99.92v30.66H97.04z"/></clipPath><clipPath id="clip-path-11" transform="translate(-95 -83)"><path class="cls-1" d="M297 923.59h97.71v30H297z"/></clipPath><clipPath id="clip-path-12" transform="translate(-95 -83)"><path class="cls-1" d="M297.04 923.61h97.64v29.96h-97.64z"/></clipPath><clipPath id="clip-path-13" transform="translate(-95 -83)"><path class="cls-1" d="M497 923.59h97.71v30H497z"/></clipPath><clipPath id="clip-path-14" transform="translate(-95 -83)"><path class="cls-1" d="M497.04 923.61h97.64v29.96h-97.64z"/></clipPath><clipPath id="clip-path-15" transform="translate(-95 -83)"><path class="cls-1" d="M697 923.59h97.71v30H697z"/></clipPath><clipPath id="clip-path-16" transform="translate(-95 -83)"><path class="cls-1" d="M697.04 923.61h97.64v29.96h-97.64z"/></clipPath></defs><path class="cls-2" d="M402 60.59h160v220H402z"/><path class="cls-3" d="M402 60.59h160v220H402z"/><path class="cls-4" d="M402 60.59h160v30H402z"/><text class="cls-5" transform="translate(407 78.94)">ADMIN</text><text class="cls-6" transform="translate(412 107.94)">Form page</text><path class="cls-7" d="M412 230.59h80v25h-80z"/><text class="cls-5" transform="translate(427.02 246.44)">Continue</text><path class="cls-2" d="M412 120.59h110v15H412z"/><path class="cls-8" d="M412 120.59h110v15H412z"/><path class="cls-2" d="M412 140.59h110v40H412z"/><path class="cls-8" d="M412 140.59h110v40H412z"/><path class="cls-2" d="M412 185.59h110v15H412z"/><path class="cls-8" d="M412 185.59h110v15H412z"/><path class="cls-2" d="M412 205.59h110v15H412z"/><path class="cls-8" d="M412 205.59h110v15H412z"/><path class="cls-2" d="M2 320.59h160v220H2z"/><path class="cls-3" d="M2 320.59h160v220H2z"/><path class="cls-9" d="M12 360.59h120v70H12z"/><text class="cls-5" transform="translate(36.18 390.28)">Confirm<tspan class="cls-10" x="44.04" y="0">a</tspan><tspan x="49.99" y="0">tion</tspan></text><text class="cls-5" transform="translate(58.66 407.59)">page</text><path class="cls-11" d="M12 440.59h120M12 451.93h85.71M12 463.26h120M12 474.59h85.71"/><path d="M2 320.59h160v30H2z"/><text class="cls-5" transform="translate(7 338.94)">ADMIN</text><path class="cls-2" d="M202 320.59h160v220H202z"/><path class="cls-3" d="M202 320.59h160v220H202z"/><path class="cls-12" d="M212 360.59h120v70H212z"/><text class="cls-5" transform="translate(230.6 398.94)">Erro<tspan x="23.21" y="0" letter-spacing="-.02em">r</tspan><tspan x="27.49" y="0" letter-spacing="-.02em"> </tspan><tspan x="29.39" y="0">valid</tspan><tspan x="55.22" y="0" letter-spacing="-.02em">a</tspan><tspan x="61.18" y="0">tion</tspan></text><path class="cls-11" d="M213.34 440.59h119.05M213.34 451.93h85.04M213.34 463.27h119.05M213.34 474.61h85.04"/><path class="cls-4" d="M202 320.59h160v30H202z"/><text class="cls-5" transform="translate(207 338.94)">ADMIN</text><path class="cls-2" d="M402 580.59h160v220H402z"/><path class="cls-3" d="M402 580.59h160v220H402z"/><path d="M402 580.59h160v30H402z"/><g clip-path="url(#clip-path)"><path class="cls-2" d="M475.27 600.5h2v-3.01l1.28-1.43 2.62 4.44h2.33l-3.66-5.96 3.43-3.94h-2.46l-3.54 4.29v-4.29h-2v9.9z"/></g><path class="cls-1" d="M402 580.59h97.71v30H402z"/><g clip-path="url(#clip-path-2)"><path class="cls-2" d="M563.47 681.7a1.77 1.77 0 0 1-.65-.38 1.84 1.84 0 0 1-.43-.66 2.58 2.58 0 0 1-.16-.93v-6.14h-2V680a3.59 3.59 0 0 0 .3 1.5 3.19 3.19 0 0 0 .84 1.14 3.82 3.82 0 0 0 1.28.73 4.9 4.9 0 0 0 1.61.25 5 5 0 0 0 1.62-.25 3.88 3.88 0 0 0 1.27-.73 3.29 3.29 0 0 0 .83-1.14 3.59 3.59 0 0 0 .3-1.5v-6.43h-2v6.14a2.58 2.58 0 0 1-.16.93 1.74 1.74 0 0 1-.44.66 1.65 1.65 0 0 1-.64.38 2.43 2.43 0 0 1-.82.13 2.37 2.37 0 0 1-.81-.13M556.24 682.88a1.18 1.18 0 0 0 .27.4 1.41 1.41 0 0 0 .4.27 1.37 1.37 0 0 0 .49.09 1.2 1.2 0 0 0 .88-.36 1.38 1.38 0 0 0 .28-.4 1.39 1.39 0 0 0 .1-.5 1.2 1.2 0 0 0-.1-.47 1.26 1.26 0 0 0-.28-.4 1.26 1.26 0 0 0-.88-.37 1.38 1.38 0 0 0-.49.1 1.41 1.41 0 0 0-.4.27 1.09 1.09 0 0 0-.27.4 1 1 0 0 0-.1.47 1.21 1.21 0 0 0 .1.5" transform="translate(-95 -83)"/><path class="cls-2" d="M458.06 600.5l2.79-9.9h-2.21l-1.88 7.44h-.06l-1.92-7.44h-2.24l2.79 9.9h2.73z"/><path class="cls-2" d="M540.06 673.86a4.46 4.46 0 0 0-1.48 1.08 4.64 4.64 0 0 0-.93 1.62 6.38 6.38 0 0 0 0 4 4.69 4.69 0 0 0 .93 1.61 4.35 4.35 0 0 0 1.48 1.09 4.87 4.87 0 0 0 2 .39 4.79 4.79 0 0 0 2-.39 4.29 4.29 0 0 0 1.49-1.09 4.69 4.69 0 0 0 .93-1.61 6.38 6.38 0 0 0 0-4 4.64 4.64 0 0 0-.93-1.62 4.4 4.4 0 0 0-1.49-1.08 4.79 4.79 0 0 0-2-.4 4.88 4.88 0 0 0-2 .4m.84 7.73a2.39 2.39 0 0 1-.83-.68 3.31 3.31 0 0 1-.51-1 4.87 4.87 0 0 1-.17-1.3v-.06a4.85 4.85 0 0 1 .17-1.29 3.2 3.2 0 0 1 .51-1 2.29 2.29 0 0 1 .83-.68 2.5 2.5 0 0 1 1.15-.25 2.45 2.45 0 0 1 1.14.25 2.29 2.29 0 0 1 .83.68 2.84 2.84 0 0 1 .51 1 4.47 4.47 0 0 1 .18 1.29v.06a4.49 4.49 0 0 1-.18 1.3 2.93 2.93 0 0 1-.51 1 2.39 2.39 0 0 1-.83.68 2.58 2.58 0 0 1-1.14.24 2.63 2.63 0 0 1-1.15-.24M529.14 678.51a5 5 0 0 1 .15-1.22 3.22 3.22 0 0 1 .49-1 2.32 2.32 0 0 1 .83-.72 2.47 2.47 0 0 1 1.2-.27 2.86 2.86 0 0 1 .8.11 2.53 2.53 0 0 1 .64.31 2.42 2.42 0 0 1 .49.47 3.25 3.25 0 0 1 .37.59l1.76-1a3.82 3.82 0 0 0-.65-1 4.07 4.07 0 0 0-.92-.72 4.26 4.26 0 0 0-1.16-.46 5.21 5.21 0 0 0-1.33-.17 4.77 4.77 0 0 0-2 .4 4.64 4.64 0 0 0-1.49 1.08 4.85 4.85 0 0 0-1 1.62 5.66 5.66 0 0 0-.34 2 6.45 6.45 0 0 0 .3 2 4.75 4.75 0 0 0 .88 1.61 4 4 0 0 0 1.42 1.09 4.51 4.51 0 0 0 1.92.39 3.6 3.6 0 0 0 .88-.1 3.49 3.49 0 0 0 .75-.26 3 3 0 0 0 .63-.41 2.58 2.58 0 0 0 .46-.53v1.16h1.75v-5.42h-4.48v1.52h2.53v.1a2.55 2.55 0 0 1-.1.69 1.81 1.81 0 0 1-.38.69 1.89 1.89 0 0 1-.71.54 2.59 2.59 0 0 1-1.11.21 2.47 2.47 0 0 1-1.2-.27 2.32 2.32 0 0 1-.83-.72 3.22 3.22 0 0 1-.49-1 4.91 4.91 0 0 1-.15-1.22zM508.2 675.61a.87.87 0 1 0-.47-1.12.86.86 0 0 0 .47 1.12M506.23 676.77a.87.87 0 1 0-.47-1.13.88.88 0 0 0 .47 1.13M505.65 679a.88.88 0 0 0 1.14-.47.86.86 0 0 0-.47-1.14.87.87 0 0 0-.67 1.61M510.4 676.31a.87.87 0 1 0-.47-1.13.87.87 0 0 0 .47 1.13M518.36 675.61a.86.86 0 0 1-1.14-.46.87.87 0 1 1 1.61-.66.86.86 0 0 1-.47 1.12M520.33 676.77a.87.87 0 1 1 .46-1.13.86.86 0 0 1-.46 1.13M520.9 679a.87.87 0 1 1 .47-1.13.87.87 0 0 1-.47 1.13M516.16 676.31a.87.87 0 1 1 .47-1.13.87.87 0 0 1-.47 1.13M513.74 674.06l1.1.58V673l-1.1.35a.52.52 0 0 0-.11-.1l.44-1.39h-1.59l.45 1.39-.1.1-1.09-.35v1.62l1.09-.58a.63.63 0 0 0 .11.12l-.63 1.9a1 1 0 0 0 0 .3 1 1 0 0 0 .88 1h.3a1 1 0 0 0 .87-1 1 1 0 0 0 0-.3l-.64-1.9a.68.68 0 0 0 .12-.12M513.28 683.38a40.32 40.32 0 0 1 5.82.4 11.32 11.32 0 0 1 1.73-4.17l-1.18-.42a2.18 2.18 0 0 1 0 1.27 2.38 2.38 0 0 1-.53-1.08l-.57 1.91a1.77 1.77 0 0 1 .93-.4c-.55 1.17-1.23 1.47-1.67 1.39a.84.84 0 0 1-.71-1c.13-.58.72-.73 1-.06.53-1.08-.37-1.42-1-1.1a1.74 1.74 0 0 0 .27-2.62 1.86 1.86 0 0 0-.56 2.58c-.58-.67-1.49-.31-1.16.77.42-.65 1-.24.89.38s-.79 1-1.67.89c-1.27-.11-1.35-1-1.38-1.71.31-.06.88.23 1.36.9l.17-2a2 2 0 0 1-1.52.66 6 6 0 0 1 1-1.44H512a6 6 0 0 1 1 1.44 2 2 0 0 1-1.53-.66l.18 2c.48-.67 1-1 1.35-.9 0 .72-.1 1.6-1.37 1.71-.89.08-1.6-.35-1.67-.89s.47-1 .89-.38c.32-1.08-.58-1.44-1.17-.77a1.85 1.85 0 0 0-.56-2.58 1.75 1.75 0 0 0 .28 2.62c-.58-.32-1.48 0-.95 1.1.28-.67.87-.52 1 .06a.83.83 0 0 1-.7 1c-.44.08-1.12-.22-1.67-1.39a1.77 1.77 0 0 1 .93.4l-.58-1.91a2.29 2.29 0 0 1-.52 1.08 2.25 2.25 0 0 1 0-1.27l-1.18.42a11.13 11.13 0 0 1 1.74 4.17 40.21 40.21 0 0 1 5.82-.4" transform="translate(-95 -83)"/></g><path class="cls-1" d="M402 580.59h97.71v30H402z"/><path class="cls-18" d="M542 643.04h-77.64M519.82 654.38h-55.46M542 665.72h-77.64M519.82 677.06h-55.46M519.82 694.07h-55.46M542 705.4h-77.64M519.82 716.74h-55.46M542 728.08h-77.64"/><path class="cls-11" d="M447.35 643.04h-34.01M447.35 694.07h-34.01"/><path class="cls-18" d="M519.82 779.1h-55.46M542 767.77h-77.64M519.82 756.43h-55.46M542 745.09h-77.64"/><path class="cls-11" d="M447.35 745.09h-34.01"/><text class="cls-6" transform="translate(412 627.94)">List page</text><path class="cls-2" d="M602 580.59h160v220H602z"/><path class="cls-19" d="M602 580.59h160v220H602z"/><path d="M602 580.59h160v30H602z"/><g clip-path="url(#clip-path-3)"><path class="cls-2" d="M675.27 600.5h2v-3.01l1.28-1.43 2.62 4.44h2.33l-3.66-5.96 3.43-3.94h-2.46l-3.54 4.29v-4.29h-2v9.9z"/></g><path class="cls-1" d="M602 580.59h97.71v30H602z"/><g clip-path="url(#clip-path-4)"><path class="cls-2" d="M763.47 681.7a1.77 1.77 0 0 1-.65-.38 1.84 1.84 0 0 1-.43-.66 2.58 2.58 0 0 1-.16-.93v-6.14h-2V680a3.59 3.59 0 0 0 .3 1.5 3.19 3.19 0 0 0 .84 1.14 3.82 3.82 0 0 0 1.28.73 4.9 4.9 0 0 0 1.61.25 5 5 0 0 0 1.62-.25 3.88 3.88 0 0 0 1.27-.73 3.17 3.17 0 0 0 .83-1.14 3.59 3.59 0 0 0 .3-1.5v-6.43h-2v6.14a2.58 2.58 0 0 1-.16.93 1.74 1.74 0 0 1-.44.66 1.65 1.65 0 0 1-.64.38 2.43 2.43 0 0 1-.82.13 2.37 2.37 0 0 1-.81-.13M756.24 682.88a1.18 1.18 0 0 0 .27.4 1.41 1.41 0 0 0 .4.27 1.37 1.37 0 0 0 .49.09 1.2 1.2 0 0 0 .88-.36 1.38 1.38 0 0 0 .28-.4 1.39 1.39 0 0 0 .1-.5 1.2 1.2 0 0 0-.1-.47 1.26 1.26 0 0 0-.28-.4 1.26 1.26 0 0 0-.88-.37 1.38 1.38 0 0 0-.49.1 1.41 1.41 0 0 0-.4.27 1.09 1.09 0 0 0-.27.4 1 1 0 0 0-.1.47 1.21 1.21 0 0 0 .1.5" transform="translate(-95 -83)"/><path class="cls-2" d="M658.06 600.5l2.79-9.9h-2.21l-1.88 7.44h-.06l-1.92-7.44h-2.24l2.8 9.9h2.72z"/><path class="cls-2" d="M740.06 673.86a4.46 4.46 0 0 0-1.48 1.08 4.64 4.64 0 0 0-.93 1.62 6.38 6.38 0 0 0 0 4 4.69 4.69 0 0 0 .93 1.61 4.35 4.35 0 0 0 1.48 1.09 4.87 4.87 0 0 0 2 .39 4.79 4.79 0 0 0 2-.39 4.29 4.29 0 0 0 1.49-1.09 4.69 4.69 0 0 0 .93-1.61 6.38 6.38 0 0 0 0-4 4.64 4.64 0 0 0-.93-1.62 4.4 4.4 0 0 0-1.49-1.08 4.79 4.79 0 0 0-2-.4 4.88 4.88 0 0 0-2 .4m.84 7.73a2.39 2.39 0 0 1-.83-.68 3.31 3.31 0 0 1-.51-1 4.87 4.87 0 0 1-.17-1.3v-.06a4.85 4.85 0 0 1 .17-1.29 3.2 3.2 0 0 1 .51-1 2.29 2.29 0 0 1 .83-.68 2.5 2.5 0 0 1 1.15-.25 2.45 2.45 0 0 1 1.14.25 2.29 2.29 0 0 1 .83.68 2.84 2.84 0 0 1 .51 1 4.47 4.47 0 0 1 .18 1.29v.06a4.49 4.49 0 0 1-.18 1.3 2.93 2.93 0 0 1-.51 1 2.39 2.39 0 0 1-.83.68 2.58 2.58 0 0 1-1.14.24 2.63 2.63 0 0 1-1.15-.24M729.14 678.51a5 5 0 0 1 .15-1.22 3.22 3.22 0 0 1 .49-1 2.32 2.32 0 0 1 .83-.72 2.47 2.47 0 0 1 1.2-.27 2.86 2.86 0 0 1 .8.11 2.53 2.53 0 0 1 .64.31 2.42 2.42 0 0 1 .49.47 3.25 3.25 0 0 1 .37.59l1.76-1a3.82 3.82 0 0 0-.65-1 4.07 4.07 0 0 0-.92-.72 4.26 4.26 0 0 0-1.16-.46 5.21 5.21 0 0 0-1.33-.17 4.77 4.77 0 0 0-2 .4 4.64 4.64 0 0 0-1.49 1.08 4.85 4.85 0 0 0-1 1.62 5.66 5.66 0 0 0-.34 2 6.45 6.45 0 0 0 .3 2 4.75 4.75 0 0 0 .88 1.61 4 4 0 0 0 1.42 1.09 4.51 4.51 0 0 0 1.92.39 3.6 3.6 0 0 0 .88-.1 3.49 3.49 0 0 0 .75-.26 3 3 0 0 0 .63-.41 2.58 2.58 0 0 0 .46-.53v1.16h1.75v-5.42h-4.48v1.52h2.53v.1a2.55 2.55 0 0 1-.1.69 1.81 1.81 0 0 1-.38.69 1.89 1.89 0 0 1-.71.54 2.59 2.59 0 0 1-1.11.21 2.47 2.47 0 0 1-1.2-.27 2.32 2.32 0 0 1-.83-.72 3.22 3.22 0 0 1-.49-1 4.91 4.91 0 0 1-.15-1.22zM708.2 675.61a.87.87 0 1 0-.47-1.12.86.86 0 0 0 .47 1.12M706.23 676.77a.87.87 0 1 0-.47-1.13.88.88 0 0 0 .47 1.13M705.65 679a.88.88 0 0 0 1.14-.47.86.86 0 0 0-.47-1.14.87.87 0 0 0-.67 1.61M710.4 676.31a.87.87 0 1 0-.47-1.13.87.87 0 0 0 .47 1.13M718.36 675.61a.86.86 0 0 1-1.14-.46.87.87 0 1 1 1.61-.66.86.86 0 0 1-.47 1.12M720.33 676.77a.87.87 0 1 1 .46-1.13.86.86 0 0 1-.46 1.13M720.9 679a.87.87 0 1 1 .47-1.13.87.87 0 0 1-.47 1.13M716.16 676.31a.87.87 0 1 1 .47-1.13.87.87 0 0 1-.47 1.13M713.74 674.06l1.1.58V673l-1.1.35a.52.52 0 0 0-.11-.1l.44-1.39h-1.59l.45 1.39-.1.1-1.09-.35v1.62l1.09-.58a.63.63 0 0 0 .11.12l-.63 1.9a1 1 0 0 0 0 .3 1 1 0 0 0 .88 1h.3a1 1 0 0 0 .87-1 1 1 0 0 0 0-.3l-.64-1.9a.46.46 0 0 0 .12-.12M713.28 683.38a40.32 40.32 0 0 1 5.82.4 11.32 11.32 0 0 1 1.73-4.17l-1.18-.42a2.18 2.18 0 0 1 0 1.27 2.38 2.38 0 0 1-.53-1.08l-.57 1.91a1.77 1.77 0 0 1 .93-.4c-.55 1.17-1.23 1.47-1.67 1.39a.84.84 0 0 1-.71-1c.13-.58.72-.73 1-.06.53-1.08-.37-1.42-1-1.1a1.74 1.74 0 0 0 .27-2.62 1.86 1.86 0 0 0-.56 2.58c-.58-.67-1.49-.31-1.16.77.42-.65 1-.24.89.38s-.79 1-1.67.89c-1.27-.11-1.35-1-1.38-1.71.31-.06.88.23 1.36.9l.17-2a2 2 0 0 1-1.52.66 6 6 0 0 1 1-1.44H712a6 6 0 0 1 1 1.44 2 2 0 0 1-1.53-.66l.18 2c.48-.67 1-1 1.35-.9 0 .72-.1 1.6-1.37 1.71-.89.08-1.6-.35-1.67-.89s.47-1 .89-.38c.32-1.08-.58-1.44-1.17-.77a1.85 1.85 0 0 0-.56-2.58 1.75 1.75 0 0 0 .28 2.62c-.58-.32-1.48 0-.95 1.1.28-.67.87-.52 1 .06a.83.83 0 0 1-.7 1c-.44.08-1.12-.22-1.67-1.39a1.77 1.77 0 0 1 .93.4l-.58-1.91a2.39 2.39 0 0 1-.52 1.08 2.25 2.25 0 0 1 0-1.27l-1.18.42a11.13 11.13 0 0 1 1.74 4.17 40.21 40.21 0 0 1 5.82-.4" transform="translate(-95 -83)"/></g><path class="cls-1" d="M602 580.59h97.71v30H602z"/><path class="cls-11" d="M689.64 640.59H612M667.46 651.93H612M689.64 663.27H612M667.46 674.61H612M667.46 690.59H612M689.64 701.93H612M667.46 713.27H612M689.64 724.61H612"/><path class="cls-18" d="M741.02 640.59H707M741.02 665.59H707"/><path class="cls-11" d="M667.46 774.61H612M689.64 763.27H612M667.46 751.93H612M689.64 740.59H612"/><path class="cls-18" d="M741.02 690.59H707"/><text class="cls-6" transform="translate(612 627.94)">Content page</text><path class="cls-2" d="M202 60.59h160v220H202z"/><path class="cls-3" d="M202 60.59h160v220H202z"/><path class="cls-4" d="M202 60.59h160v30H202z"/><text class="cls-5" transform="translate(207 78.94)">ADMIN</text><text class="cls-6" transform="translate(212 107.94)">Question page</text><path class="cls-7" d="M212 230.59h80v25h-80z"/><text class="cls-5" transform="translate(227.02 246.44)">Continue</text><path class="cls-22" d="M212 120.59h110v15H212zM212 140.59h110v15H212zM212 160.59h110v15H212zM212 180.59h110v15H212z"/><path class="cls-2" d="M2 60.59h160v220H2z"/><path class="cls-19" d="M2 60.59h160v220H2z"/><path d="M2 60.59h160v30H2z"/><text class="cls-5" transform="translate(7 78.94)">ADMIN</text><text class="cls-6" transform="translate(13.34 152.94)">Dashboard</text><path class="cls-18" d="M13.34 164.6H75.7M13.34 175.94H75.7M13.34 187.28H75.7M13.34 198.62H75.7M13.34 209.95H75.7M13.34 221.29H75.7M13.34 232.63H75.7M13.34 243.97H75.7"/><path class="cls-11" d="M81.37 164.6h22.68M81.37 175.94h22.68M81.37 187.28h22.68M81.37 198.62h22.68M81.37 209.95h22.68M81.37 221.29h22.68M81.37 232.63h22.68M81.37 243.97h22.68M109.72 164.6h22.67M109.72 175.94h22.67M109.72 187.28h22.67M109.72 198.62h22.67M109.72 209.95h22.67M109.72 221.29h22.67M109.72 232.63h22.67M109.72 243.97h22.67"/><path class="cls-7" d="M12 100.59h110v30H12z"/><text class="cls-5" transform="translate(19.56 118.94)">Cre<tspan class="cls-10" x="19.39" y="0">a</tspan><tspan x="25.34" y="0">te document</tspan></text><path class="cls-2" d="M202 580.59h160v220H202z"/><path class="cls-23" d="M202 605.59h160v80H202z"/><path class="cls-19" d="M202 580.59h160v220H202z"/><path d="M202 580.59h160v30H202z"/><g clip-path="url(#clip-path-5)"><path class="cls-2" d="M275.27 600.5h2v-3.01l1.28-1.43 2.62 4.44h2.33l-3.66-5.96 3.43-3.94h-2.46l-3.54 4.29v-4.29h-2v9.9z"/></g><path class="cls-1" d="M202 580.59h97.71v30H202z"/><g clip-path="url(#clip-path-6)"><path class="cls-2" d="M363.47 681.7a1.77 1.77 0 0 1-.65-.38 1.84 1.84 0 0 1-.43-.66 2.58 2.58 0 0 1-.16-.93v-6.14h-2V680a3.59 3.59 0 0 0 .3 1.5 3.19 3.19 0 0 0 .84 1.14 3.82 3.82 0 0 0 1.28.73 4.9 4.9 0 0 0 1.61.25 5 5 0 0 0 1.62-.25 3.88 3.88 0 0 0 1.27-.73 3.29 3.29 0 0 0 .83-1.14 3.59 3.59 0 0 0 .3-1.5v-6.43h-2v6.14a2.58 2.58 0 0 1-.16.93 1.74 1.74 0 0 1-.44.66 1.65 1.65 0 0 1-.64.38 2.43 2.43 0 0 1-.82.13 2.37 2.37 0 0 1-.81-.13M356.24 682.88a1.18 1.18 0 0 0 .27.4 1.41 1.41 0 0 0 .4.27 1.37 1.37 0 0 0 .49.09 1.2 1.2 0 0 0 .88-.36 1.38 1.38 0 0 0 .28-.4 1.39 1.39 0 0 0 .1-.5 1.2 1.2 0 0 0-.1-.47 1.26 1.26 0 0 0-.28-.4 1.26 1.26 0 0 0-.88-.37 1.38 1.38 0 0 0-.49.1 1.41 1.41 0 0 0-.4.27 1.09 1.09 0 0 0-.27.4 1 1 0 0 0-.1.47 1.21 1.21 0 0 0 .1.5" transform="translate(-95 -83)"/><path class="cls-2" d="M258.06 600.5l2.79-9.9h-2.21l-1.88 7.44h-.06l-1.92-7.44h-2.24l2.8 9.9h2.72z"/><path class="cls-2" d="M340.06 673.86a4.46 4.46 0 0 0-1.48 1.08 4.64 4.64 0 0 0-.93 1.62 6.38 6.38 0 0 0 0 4 4.69 4.69 0 0 0 .93 1.61 4.35 4.35 0 0 0 1.48 1.09 4.87 4.87 0 0 0 2 .39 4.79 4.79 0 0 0 2-.39 4.29 4.29 0 0 0 1.49-1.09 4.69 4.69 0 0 0 .93-1.61 6.38 6.38 0 0 0 0-4 4.64 4.64 0 0 0-.93-1.62 4.4 4.4 0 0 0-1.49-1.08 4.79 4.79 0 0 0-2-.4 4.88 4.88 0 0 0-2 .4m.84 7.73a2.39 2.39 0 0 1-.83-.68 3.31 3.31 0 0 1-.51-1 4.87 4.87 0 0 1-.17-1.3v-.06a4.85 4.85 0 0 1 .17-1.29 3.2 3.2 0 0 1 .51-1 2.29 2.29 0 0 1 .83-.68 2.5 2.5 0 0 1 1.15-.25 2.45 2.45 0 0 1 1.14.25 2.29 2.29 0 0 1 .83.68 2.84 2.84 0 0 1 .51 1 4.47 4.47 0 0 1 .18 1.29v.06a4.49 4.49 0 0 1-.18 1.3 2.93 2.93 0 0 1-.51 1 2.39 2.39 0 0 1-.83.68 2.58 2.58 0 0 1-1.14.24 2.63 2.63 0 0 1-1.15-.24M329.14 678.51a5 5 0 0 1 .15-1.22 3.22 3.22 0 0 1 .49-1 2.32 2.32 0 0 1 .83-.72 2.47 2.47 0 0 1 1.2-.27 2.86 2.86 0 0 1 .8.11 2.53 2.53 0 0 1 .64.31 2.42 2.42 0 0 1 .49.47 3.25 3.25 0 0 1 .37.59l1.76-1a3.82 3.82 0 0 0-.65-1 4.07 4.07 0 0 0-.92-.72 4.26 4.26 0 0 0-1.16-.46 5.21 5.21 0 0 0-1.33-.17 4.77 4.77 0 0 0-2 .4 4.64 4.64 0 0 0-1.49 1.08 4.85 4.85 0 0 0-.95 1.62 5.66 5.66 0 0 0-.34 2 6.45 6.45 0 0 0 .3 2 4.75 4.75 0 0 0 .88 1.61 4 4 0 0 0 1.42 1.09 4.51 4.51 0 0 0 1.92.39 3.6 3.6 0 0 0 .88-.1 3.49 3.49 0 0 0 .75-.26 3 3 0 0 0 .63-.41 2.58 2.58 0 0 0 .46-.53v1.16h1.75v-5.42h-4.48v1.52h2.53v.1a2.55 2.55 0 0 1-.1.69 1.81 1.81 0 0 1-.38.69 1.89 1.89 0 0 1-.71.54 2.59 2.59 0 0 1-1.11.21 2.47 2.47 0 0 1-1.2-.27 2.32 2.32 0 0 1-.83-.72 3.22 3.22 0 0 1-.49-1 4.91 4.91 0 0 1-.15-1.22zM308.2 675.61a.87.87 0 1 0-.47-1.12.86.86 0 0 0 .47 1.12M306.23 676.77a.87.87 0 1 0-.47-1.13.88.88 0 0 0 .47 1.13M305.65 679a.88.88 0 0 0 1.14-.47.86.86 0 0 0-.47-1.14.87.87 0 0 0-.67 1.61M310.4 676.31a.87.87 0 1 0-.47-1.13.87.87 0 0 0 .47 1.13M318.36 675.61a.86.86 0 0 1-1.14-.46.87.87 0 1 1 1.61-.66.86.86 0 0 1-.47 1.12M320.33 676.77a.87.87 0 1 1 .46-1.13.86.86 0 0 1-.46 1.13M320.9 679a.87.87 0 1 1 .47-1.13.87.87 0 0 1-.47 1.13M316.16 676.31a.87.87 0 1 1 .47-1.13.87.87 0 0 1-.47 1.13M313.74 674.06l1.1.58V673l-1.1.35a.52.52 0 0 0-.11-.1l.44-1.39h-1.59l.45 1.39-.1.1-1.09-.35v1.62l1.09-.58a.63.63 0 0 0 .11.12l-.63 1.9a1 1 0 0 0-.05.3 1 1 0 0 0 .88 1h.3a1 1 0 0 0 .87-1 1 1 0 0 0 0-.3l-.64-1.9a.46.46 0 0 0 .12-.12M313.28 683.38a40.32 40.32 0 0 1 5.82.4 11.32 11.32 0 0 1 1.73-4.17l-1.18-.42a2.18 2.18 0 0 1 0 1.27 2.38 2.38 0 0 1-.53-1.08l-.57 1.91a1.77 1.77 0 0 1 .93-.4c-.55 1.17-1.23 1.47-1.67 1.39a.84.84 0 0 1-.71-1c.13-.58.72-.73 1-.06.53-1.08-.37-1.42-.95-1.1a1.74 1.74 0 0 0 .27-2.62 1.86 1.86 0 0 0-.56 2.58c-.58-.67-1.49-.31-1.16.77.42-.65 1-.24.89.38s-.79 1-1.67.89c-1.27-.11-1.35-1-1.38-1.71.31-.06.88.23 1.36.9l.17-2a2 2 0 0 1-1.52.66 6 6 0 0 1 1-1.44H312a6 6 0 0 1 1 1.44 2 2 0 0 1-1.53-.66l.18 2c.48-.67 1-1 1.35-.9 0 .72-.1 1.6-1.37 1.71-.89.08-1.6-.35-1.67-.89s.47-1 .89-.38c.32-1.08-.58-1.44-1.17-.77a1.85 1.85 0 0 0-.56-2.58 1.75 1.75 0 0 0 .28 2.62c-.58-.32-1.48 0-.95 1.1.28-.67.87-.52 1 .06a.83.83 0 0 1-.7 1c-.44.08-1.12-.22-1.67-1.39a1.77 1.77 0 0 1 .93.4l-.58-1.91a2.29 2.29 0 0 1-.52 1.08 2.25 2.25 0 0 1 0-1.27l-1.18.42a11.13 11.13 0 0 1 1.74 4.17 40.21 40.21 0 0 1 5.82-.4" transform="translate(-95 -83)"/></g><path class="cls-1" d="M202 580.59h97.71v30H202z"/><path class="cls-18" d="M267.46 695.59H212"/><path class="cls-11" d="M289.64 706.93H212M267.46 718.27H212M289.64 729.61H212M267.46 780.63H212M289.64 769.29H212M267.46 757.95H212"/><path class="cls-18" d="M289.64 746.62H212"/><text class="cls-5" transform="translate(212 627.94)"><tspan letter-spacing="-.06em">T</tspan><tspan x="6" y="0">opic page</tspan></text><path class="cls-27" d="M267.46 645.59H212M289.64 656.93H212M267.46 668.27H212"/><path class="cls-2" d="M2 840.59h160v220H2z"/><path class="cls-19" d="M2 840.59h160v220H2z"/><path d="M2 840.59h160v30H2z"/><g clip-path="url(#clip-path-7)"><path class="cls-2" d="M75.27 860.5h2v-3.01l1.28-1.43 2.62 4.44h2.33l-3.66-5.96 3.44-3.94h-2.47l-3.54 4.29v-4.29h-2v9.9z"/></g><path class="cls-1" d="M2 840.59h97.71v30H2z"/><g clip-path="url(#clip-path-8)"><path class="cls-2" d="M163.47 941.7a1.77 1.77 0 0 1-.65-.38 1.84 1.84 0 0 1-.43-.66 2.58 2.58 0 0 1-.16-.93v-6.14h-2V940a3.59 3.59 0 0 0 .3 1.5 3.19 3.19 0 0 0 .84 1.14 3.82 3.82 0 0 0 1.28.73 4.9 4.9 0 0 0 1.61.25 5 5 0 0 0 1.62-.25 3.88 3.88 0 0 0 1.27-.73 3.29 3.29 0 0 0 .83-1.14 3.59 3.59 0 0 0 .3-1.5v-6.43h-2v6.14a2.58 2.58 0 0 1-.16.93 1.74 1.74 0 0 1-.44.66 1.65 1.65 0 0 1-.64.38 2.43 2.43 0 0 1-.82.13 2.37 2.37 0 0 1-.81-.13M156.24 942.88a1.18 1.18 0 0 0 .27.4 1.41 1.41 0 0 0 .4.27 1.37 1.37 0 0 0 .49.09 1.2 1.2 0 0 0 .88-.36 1.22 1.22 0 0 0 .38-.89 1.21 1.21 0 0 0-.1-.48 1.26 1.26 0 0 0-.28-.4 1.26 1.26 0 0 0-.88-.37 1.38 1.38 0 0 0-.49.1 1.41 1.41 0 0 0-.4.27 1.09 1.09 0 0 0-.27.4 1.06 1.06 0 0 0-.1.48 1.19 1.19 0 0 0 .1.49" transform="translate(-95 -83)"/><path class="cls-2" d="M58.06 860.5l2.79-9.9h-2.21l-1.87 7.44h-.07l-1.92-7.44h-2.24l2.8 9.9h2.72z"/><path class="cls-2" d="M140.06 933.86a4.46 4.46 0 0 0-1.48 1.08 4.64 4.64 0 0 0-.93 1.62 6.38 6.38 0 0 0 0 4 4.6 4.6 0 0 0 .93 1.61 4.35 4.35 0 0 0 1.48 1.09 4.87 4.87 0 0 0 2 .39 4.79 4.79 0 0 0 2-.39 4.29 4.29 0 0 0 1.49-1.09 4.6 4.6 0 0 0 .93-1.61 6.38 6.38 0 0 0 0-4 4.64 4.64 0 0 0-.93-1.62 4.4 4.4 0 0 0-1.49-1.08 4.79 4.79 0 0 0-2-.4 4.88 4.88 0 0 0-2 .4m.84 7.73a2.39 2.39 0 0 1-.83-.68 3.31 3.31 0 0 1-.51-1 4.87 4.87 0 0 1-.17-1.3v-.06a4.85 4.85 0 0 1 .17-1.29 3.2 3.2 0 0 1 .51-1 2.29 2.29 0 0 1 .83-.68 2.5 2.5 0 0 1 1.15-.25 2.45 2.45 0 0 1 1.14.25 2.29 2.29 0 0 1 .83.68 2.84 2.84 0 0 1 .51 1 4.47 4.47 0 0 1 .18 1.29v.06a4.49 4.49 0 0 1-.18 1.3 2.93 2.93 0 0 1-.51 1 2.39 2.39 0 0 1-.83.68 2.58 2.58 0 0 1-1.14.24 2.63 2.63 0 0 1-1.15-.24M129.14 938.51a5 5 0 0 1 .15-1.22 3.22 3.22 0 0 1 .49-1 2.32 2.32 0 0 1 .83-.72 2.47 2.47 0 0 1 1.2-.27 2.86 2.86 0 0 1 .8.11 2.53 2.53 0 0 1 .64.31 2.42 2.42 0 0 1 .49.47 3.25 3.25 0 0 1 .37.59l1.76-1a3.82 3.82 0 0 0-.65-1 4.07 4.07 0 0 0-.92-.72 4.26 4.26 0 0 0-1.16-.46 5.21 5.21 0 0 0-1.33-.17 4.77 4.77 0 0 0-2 .4 4.5 4.5 0 0 0-1.49 1.08 4.85 4.85 0 0 0-1 1.62 5.66 5.66 0 0 0-.34 2 6.45 6.45 0 0 0 .3 2 4.65 4.65 0 0 0 .88 1.61 4 4 0 0 0 1.42 1.09 4.51 4.51 0 0 0 1.92.39 3.6 3.6 0 0 0 .88-.1 3.49 3.49 0 0 0 .75-.26 3 3 0 0 0 .63-.41 2.58 2.58 0 0 0 .46-.53v1.16h1.75v-5.42h-4.48v1.52h2.53v.1a2.55 2.55 0 0 1-.1.69 1.81 1.81 0 0 1-.38.69 1.89 1.89 0 0 1-.71.54 2.59 2.59 0 0 1-1.11.21 2.47 2.47 0 0 1-1.2-.27 2.32 2.32 0 0 1-.83-.72 3.22 3.22 0 0 1-.49-1 4.91 4.91 0 0 1-.15-1.22zM108.2 935.61a.87.87 0 1 0-.47-1.12.86.86 0 0 0 .47 1.12M106.23 936.77a.87.87 0 1 0-.47-1.13.88.88 0 0 0 .47 1.13M105.65 939a.88.88 0 0 0 1.14-.47.86.86 0 0 0-.47-1.14.87.87 0 0 0-.67 1.61M110.4 936.31a.87.87 0 1 0-.47-1.13.87.87 0 0 0 .47 1.13M118.36 935.61a.86.86 0 0 1-1.14-.46.87.87 0 1 1 1.61-.66.86.86 0 0 1-.47 1.12M120.33 936.77a.87.87 0 1 1 .46-1.13.86.86 0 0 1-.46 1.13M120.9 939a.87.87 0 1 1 .47-1.13.87.87 0 0 1-.47 1.13M116.16 936.31a.87.87 0 1 1 .47-1.13.87.87 0 0 1-.47 1.13M113.74 934.06l1.1.58V933l-1.1.35a.52.52 0 0 0-.11-.1l.44-1.39h-1.59l.45 1.39-.1.1-1.09-.35v1.62l1.09-.58a.63.63 0 0 0 .11.12l-.63 1.9a1 1 0 0 0 0 .3 1 1 0 0 0 .88 1h.3a1 1 0 0 0 .87-1 1 1 0 0 0 0-.3l-.64-1.9a.46.46 0 0 0 .12-.12M113.28 943.38a40.32 40.32 0 0 1 5.82.4 11.32 11.32 0 0 1 1.73-4.17l-1.18-.42a2.18 2.18 0 0 1 0 1.27 2.38 2.38 0 0 1-.53-1.08l-.57 1.91a1.77 1.77 0 0 1 .93-.4c-.55 1.17-1.23 1.47-1.67 1.39a.84.84 0 0 1-.71-1c.13-.58.72-.73 1-.06.53-1.08-.37-1.42-1-1.1a1.74 1.74 0 0 0 .27-2.62 1.86 1.86 0 0 0-.56 2.58c-.58-.67-1.49-.31-1.16.77.42-.65 1-.24.89.38s-.79 1-1.67.89c-1.27-.11-1.35-1-1.38-1.71.31-.06.88.23 1.36.9l.17-2a2 2 0 0 1-1.52.66 6 6 0 0 1 1-1.44H112a6 6 0 0 1 1 1.44 2 2 0 0 1-1.53-.66l.18 2c.48-.67 1-1 1.35-.9 0 .72-.1 1.6-1.37 1.71-.89.08-1.6-.35-1.67-.89s.47-1 .89-.38c.32-1.08-.58-1.44-1.17-.77a1.85 1.85 0 0 0-.56-2.58 1.75 1.75 0 0 0 .28 2.62c-.58-.32-1.48 0-1 1.1.28-.67.87-.52 1 .06a.83.83 0 0 1-.7 1c-.44.08-1.12-.22-1.67-1.39a1.77 1.77 0 0 1 .93.4l-.58-1.91a2.39 2.39 0 0 1-.52 1.08 2.25 2.25 0 0 1 0-1.27l-1.18.42a11.13 11.13 0 0 1 1.74 4.17 40.21 40.21 0 0 1 5.82-.4" transform="translate(-95 -83)"/></g><path class="cls-1" d="M2 840.59h97.71v30H2z"/><path class="cls-11" d="M89.64 900.59H12M67.46 911.93H12M89.64 923.27H12M67.46 934.61H12M67.46 950.59H12M89.64 961.93H12M67.46 973.27H12M89.64 984.61H12"/><path class="cls-18" d="M141.02 900.59H107"/><text class="cls-6" transform="translate(12 887.94)">Start page</text><path class="cls-7" d="M12 1005.59h80v25H12z"/><text class="cls-5" transform="translate(25.45 1021.44)">Start now</text><path class="cls-2" d="M2 580.59h160v220H2z"/><path class="cls-23" d="M2 605.59h160v80H2z"/><path class="cls-19" d="M2 580.59h160v220H2z"/><path d="M2 580.59h160v30H2z"/><g clip-path="url(#clip-path-9)"><path class="cls-2" d="M76.99 600.97h2.05v-3.08l1.3-1.46 2.68 4.54h2.39l-3.75-6.11 3.52-4.02h-2.52l-3.62 4.38v-4.38h-2.05v10.13z"/></g><path class="cls-1" d="M2 580.59h100v30.7H2z"/><g clip-path="url(#clip-path-10)"><path class="cls-2" d="M165 682.13a1.7 1.7 0 0 1-.66-.4 1.8 1.8 0 0 1-.45-.67 2.75 2.75 0 0 1-.16-1v-6.28h-2v6.59a3.8 3.8 0 0 0 .31 1.53 3.36 3.36 0 0 0 .86 1.17 3.82 3.82 0 0 0 1.31.74 5.37 5.37 0 0 0 3.3 0 3.77 3.77 0 0 0 1.3-.74 3.36 3.36 0 0 0 .86-1.17 3.8 3.8 0 0 0 .3-1.53v-6.59h-2v6.28a2.54 2.54 0 0 1-.16 1 1.91 1.91 0 0 1-.44.67 1.81 1.81 0 0 1-.67.4 2.71 2.71 0 0 1-1.66 0M157.62 683.33a1.65 1.65 0 0 0 .28.41 1.32 1.32 0 0 0 .42.27 1.16 1.16 0 0 0 .49.1 1.21 1.21 0 0 0 .5-.1 1.39 1.39 0 0 0 .41-.27 1.42 1.42 0 0 0 .28-.41 1.24 1.24 0 0 0 .1-.5 1.21 1.21 0 0 0-.1-.5 1.3 1.3 0 0 0-.69-.67 1.22 1.22 0 0 0-.5-.11 1.17 1.17 0 0 0-.49.11 1.32 1.32 0 0 0-.42.27 1.6 1.6 0 0 0-.28.4 1.39 1.39 0 0 0-.1.5 1.44 1.44 0 0 0 .1.5" transform="translate(-95 -83)"/><path class="cls-2" d="M59.37 600.97l2.86-10.13h-2.27l-1.91 7.61h-.07l-1.96-7.61h-2.3l2.87 10.13h2.78z"/><path class="cls-2" d="M141.07 674.1a4.56 4.56 0 0 0-1.52 1.11 5 5 0 0 0-1 1.65 6.5 6.5 0 0 0 0 4.09 5 5 0 0 0 1 1.65 4.56 4.56 0 0 0 1.52 1.11 5.35 5.35 0 0 0 4.06 0 4.5 4.5 0 0 0 1.53-1.11 5 5 0 0 0 1-1.65 6.5 6.5 0 0 0 0-4.09 5 5 0 0 0-1-1.65 4.5 4.5 0 0 0-1.53-1.11 5.23 5.23 0 0 0-4.06 0m.86 7.91a2.41 2.41 0 0 1-.85-.7 3 3 0 0 1-.52-1 4.7 4.7 0 0 1-.18-1.33v-.06a4.68 4.68 0 0 1 .18-1.32 3.18 3.18 0 0 1 .52-1.06 2.38 2.38 0 0 1 .85-.69 2.58 2.58 0 0 1 1.17-.25 2.49 2.49 0 0 1 2 .94 3.18 3.18 0 0 1 .52 1.06 4.68 4.68 0 0 1 .18 1.32v.06a4.7 4.7 0 0 1-.18 1.33 3 3 0 0 1-.52 1 2.46 2.46 0 0 1-2 1 2.58 2.58 0 0 1-1.17-.25M129.89 678.86a4.76 4.76 0 0 1 .16-1.25 3.14 3.14 0 0 1 .5-1.06 2.5 2.5 0 0 1 .84-.74 2.54 2.54 0 0 1 1.23-.28 2.62 2.62 0 0 1 .82.12 2.25 2.25 0 0 1 .66.32 2.07 2.07 0 0 1 .5.48 2.65 2.65 0 0 1 .38.6l1.8-1a3.69 3.69 0 0 0-.67-1 4.08 4.08 0 0 0-.94-.75 4.77 4.77 0 0 0-1.18-.47 5.53 5.53 0 0 0-1.37-.17 4.8 4.8 0 0 0-2 .41 4.6 4.6 0 0 0-1.53 1.11 5 5 0 0 0-1 1.65 6 6 0 0 0-.34 2 6.82 6.82 0 0 0 .3 2.05 5.06 5.06 0 0 0 .9 1.65 4.19 4.19 0 0 0 1.45 1.11 4.59 4.59 0 0 0 2 .4 3.71 3.71 0 0 0 .9-.1 3 3 0 0 0 .77-.27 2.53 2.53 0 0 0 .64-.42 2.4 2.4 0 0 0 .47-.54V684H137v-5.55h-4.59V680H135v.1a2.31 2.31 0 0 1-.11.7 1.89 1.89 0 0 1-.38.71 2.1 2.1 0 0 1-.73.55 2.94 2.94 0 0 1-2.37-.06 2.5 2.5 0 0 1-.84-.74 3.05 3.05 0 0 1-.5-1.06 4.71 4.71 0 0 1-.16-1.25zM108.46 675.9a.89.89 0 1 0-.48-1.16.91.91 0 0 0 .48 1.16M106.45 677.08a.89.89 0 0 0 1.16-.48.89.89 0 1 0-1.64-.68.89.89 0 0 0 .48 1.16M105.86 679.32a.88.88 0 0 0 1.16-.48.89.89 0 1 0-1.64-.68.89.89 0 0 0 .48 1.16M110.71 676.61a.89.89 0 0 0 .68-1.65.89.89 0 0 0-.68 1.65M118.86 675.9a.89.89 0 1 1 .48-1.16.91.91 0 0 1-.48 1.16M120.87 677.08a.89.89 0 0 1-1.16-.48.89.89 0 1 1 1.64-.68.89.89 0 0 1-.48 1.16M121.46 679.32a.89.89 0 0 1-1.16-.48.89.89 0 1 1 1.64-.68.89.89 0 0 1-.48 1.16M116.61 676.61a.89.89 0 0 1-.68-1.65.89.89 0 0 1 .68 1.65M114.13 674.31l1.13.59v-1.66l-1.13.36a.57.57 0 0 0-.11-.11l.45-1.42h-1.62l.45 1.42a.38.38 0 0 0-.11.11l-1.12-.36v1.66l1.12-.59a.57.57 0 0 0 .11.11l-.64 2a1.07 1.07 0 0 0 .85 1.35h.31a1 1 0 0 0 .85-1.35l-.65-2a.43.43 0 0 0 .12-.11M113.66 683.85a42.24 42.24 0 0 1 6 .4 11.41 11.41 0 0 1 1.77-4.26l-1.21-.43a2.25 2.25 0 0 1 0 1.29 2.42 2.42 0 0 1-.54-1.1l-.58 2a1.82 1.82 0 0 1 .94-.41c-.56 1.21-1.25 1.51-1.71 1.43a.85.85 0 0 1-.71-1c.12-.59.73-.74 1-.06.54-1.1-.37-1.45-1-1.12a1.79 1.79 0 0 0 .28-2.69 1.91 1.91 0 0 0-.57 2.65c-.6-.69-1.53-.32-1.19.78.43-.66 1-.24.91.39s-.8 1-1.71.92c-1.3-.12-1.38-1-1.41-1.76.32-.06.89.24 1.39.93l.18-2.07a2 2 0 0 1-1.56.67 6.24 6.24 0 0 1 1-1.47h-2.58a6.24 6.24 0 0 1 1 1.47 2 2 0 0 1-1.56-.67l.18 2.07c.5-.69 1.07-1 1.39-.93 0 .74-.11 1.64-1.41 1.76-.91.08-1.63-.37-1.71-.92s.48-1 .91-.39c.34-1.1-.59-1.47-1.19-.78a1.91 1.91 0 0 0-.57-2.65 1.79 1.79 0 0 0 .28 2.69c-.6-.33-1.51 0-1 1.12.28-.68.89-.53 1 .06a.85.85 0 0 1-.72 1c-.45.08-1.14-.22-1.7-1.43a1.82 1.82 0 0 1 .94.41l-.58-2a2.42 2.42 0 0 1-.54 1.1 2.25 2.25 0 0 1 0-1.29l-1.21.43a11.41 11.41 0 0 1 1.77 4.26 42.13 42.13 0 0 1 6-.4" transform="translate(-95 -83)"/></g><path class="cls-1" d="M2 580.59h100v30.7H2z"/><path class="cls-18" d="M44.14 695.59H12"/><path class="cls-11" d="M52 706.93H12"/><path class="cls-18" d="M44.14 718.27H12"/><path class="cls-11" d="M52 729.61H12M44.14 780.63H12"/><path class="cls-18" d="M52 769.29H12"/><path class="cls-11" d="M44.14 757.95H12"/><path class="cls-18" d="M52 746.62H12"/><text class="cls-5" transform="translate(12 627.94)"><tspan letter-spacing="-.04em">W</tspan><tspan x="10.56" y="0">elcome</tspan><tspan x="50.98" y="0" letter-spacing="-.02em"> </tspan><tspan x="52.92" y="0">to GO</tspan><tspan x="84.59" y="0" letter-spacing="-.04em">V</tspan><tspan x="91.53" y="0">.UK</tspan></text><path class="cls-18" d="M94.14 695.59H62"/><path class="cls-11" d="M102 706.93H62"/><path class="cls-18" d="M94.14 718.27H62"/><path class="cls-11" d="M102 729.61H62M94.14 780.63H62"/><path class="cls-18" d="M102 769.29H62"/><path class="cls-11" d="M94.14 757.95H62"/><path class="cls-18" d="M102 746.62H62M144.14 695.59H112"/><path class="cls-11" d="M152 706.93h-40"/><path class="cls-18" d="M144.14 718.27H112"/><path class="cls-11" d="M152 729.61h-40M144.14 780.63H112"/><path class="cls-18" d="M152 769.29h-40"/><path class="cls-11" d="M144.14 757.95H112"/><path class="cls-18" d="M152 746.62h-40"/><path class="cls-2" d="M12 645.59h95v15H12z"/><path class="cls-4" d="M107 645.59h15v15h-15z"/><path class="cls-2" d="M202 840.59h160v220H202z"/><path class="cls-3" d="M202 840.59h160v220H202z"/><path class="cls-4" d="M202 840.59h160v30H202z"/><text class="cls-6" transform="translate(212 887.94)">Question page</text><path class="cls-7" d="M212 1010.59h80v25h-80z"/><text class="cls-5" transform="translate(227.02 1026.44)">Continue</text><path class="cls-22" d="M212 900.59h110v15H212zM212 920.59h110v15H212zM212 940.59h110v15H212zM212 960.59h110v15H212z"/><g clip-path="url(#clip-path-11)"><path class="cls-2" d="M275.27 860.5h2v-3.01l1.28-1.43 2.62 4.44h2.33l-3.66-5.96 3.43-3.94h-2.46l-3.54 4.29v-4.29h-2v9.9z"/></g><path class="cls-1" d="M202 840.59h97.71v30H202z"/><g clip-path="url(#clip-path-12)"><path class="cls-2" d="M363.47 941.7a1.77 1.77 0 0 1-.65-.38 1.84 1.84 0 0 1-.43-.66 2.58 2.58 0 0 1-.16-.93v-6.14h-2V940a3.59 3.59 0 0 0 .3 1.5 3.19 3.19 0 0 0 .84 1.14 3.82 3.82 0 0 0 1.28.73 4.9 4.9 0 0 0 1.61.25 5 5 0 0 0 1.62-.25 3.88 3.88 0 0 0 1.27-.73 3.29 3.29 0 0 0 .83-1.14 3.59 3.59 0 0 0 .3-1.5v-6.43h-2v6.14a2.58 2.58 0 0 1-.16.93 1.74 1.74 0 0 1-.44.66 1.65 1.65 0 0 1-.64.38 2.43 2.43 0 0 1-.82.13 2.37 2.37 0 0 1-.81-.13M356.24 942.88a1.18 1.18 0 0 0 .27.4 1.41 1.41 0 0 0 .4.27 1.37 1.37 0 0 0 .49.09 1.2 1.2 0 0 0 .88-.36 1.22 1.22 0 0 0 .38-.89 1.21 1.21 0 0 0-.1-.48 1.26 1.26 0 0 0-.28-.4 1.26 1.26 0 0 0-.88-.37 1.38 1.38 0 0 0-.49.1 1.41 1.41 0 0 0-.4.27 1.09 1.09 0 0 0-.27.4 1.06 1.06 0 0 0-.1.48 1.19 1.19 0 0 0 .1.49" transform="translate(-95 -83)"/><path class="cls-2" d="M258.06 860.5l2.79-9.9h-2.21l-1.88 7.44h-.06l-1.92-7.44h-2.24l2.8 9.9h2.72z"/><path class="cls-2" d="M340.06 933.86a4.46 4.46 0 0 0-1.48 1.08 4.64 4.64 0 0 0-.93 1.62 6.38 6.38 0 0 0 0 4 4.6 4.6 0 0 0 .93 1.61 4.35 4.35 0 0 0 1.48 1.09 4.87 4.87 0 0 0 2 .39 4.79 4.79 0 0 0 2-.39 4.29 4.29 0 0 0 1.49-1.09 4.6 4.6 0 0 0 .93-1.61 6.38 6.38 0 0 0 0-4 4.64 4.64 0 0 0-.93-1.62 4.4 4.4 0 0 0-1.49-1.08 4.79 4.79 0 0 0-2-.4 4.88 4.88 0 0 0-2 .4m.84 7.73a2.39 2.39 0 0 1-.83-.68 3.31 3.31 0 0 1-.51-1 4.87 4.87 0 0 1-.17-1.3v-.06a4.85 4.85 0 0 1 .17-1.29 3.2 3.2 0 0 1 .51-1 2.29 2.29 0 0 1 .83-.68 2.5 2.5 0 0 1 1.15-.25 2.45 2.45 0 0 1 1.14.25 2.29 2.29 0 0 1 .83.68 2.84 2.84 0 0 1 .51 1 4.47 4.47 0 0 1 .18 1.29v.06a4.49 4.49 0 0 1-.18 1.3 2.93 2.93 0 0 1-.51 1 2.39 2.39 0 0 1-.83.68 2.58 2.58 0 0 1-1.14.24 2.63 2.63 0 0 1-1.15-.24M329.14 938.51a5 5 0 0 1 .15-1.22 3.22 3.22 0 0 1 .49-1 2.32 2.32 0 0 1 .83-.72 2.47 2.47 0 0 1 1.2-.27 2.86 2.86 0 0 1 .8.11 2.53 2.53 0 0 1 .64.31 2.42 2.42 0 0 1 .49.47 3.25 3.25 0 0 1 .37.59l1.76-1a3.82 3.82 0 0 0-.65-1 4.07 4.07 0 0 0-.92-.72 4.26 4.26 0 0 0-1.16-.46 5.21 5.21 0 0 0-1.33-.17 4.77 4.77 0 0 0-2 .4 4.5 4.5 0 0 0-1.49 1.08 4.85 4.85 0 0 0-.95 1.62 5.66 5.66 0 0 0-.34 2 6.45 6.45 0 0 0 .3 2 4.65 4.65 0 0 0 .88 1.61 4 4 0 0 0 1.42 1.09 4.51 4.51 0 0 0 1.92.39 3.6 3.6 0 0 0 .88-.1 3.49 3.49 0 0 0 .75-.26 3 3 0 0 0 .63-.41 2.58 2.58 0 0 0 .46-.53v1.16h1.75v-5.42h-4.48v1.52h2.53v.1a2.55 2.55 0 0 1-.1.69 1.81 1.81 0 0 1-.38.69 1.89 1.89 0 0 1-.71.54 2.59 2.59 0 0 1-1.11.21 2.47 2.47 0 0 1-1.2-.27 2.32 2.32 0 0 1-.83-.72 3.22 3.22 0 0 1-.49-1 4.91 4.91 0 0 1-.15-1.22zM308.2 935.61a.87.87 0 1 0-.47-1.12.86.86 0 0 0 .47 1.12M306.23 936.77a.87.87 0 1 0-.47-1.13.88.88 0 0 0 .47 1.13M305.65 939a.88.88 0 0 0 1.14-.47.86.86 0 0 0-.47-1.14.87.87 0 0 0-.67 1.61M310.4 936.31a.87.87 0 1 0-.47-1.13.87.87 0 0 0 .47 1.13M318.36 935.61a.86.86 0 0 1-1.14-.46.87.87 0 1 1 1.61-.66.86.86 0 0 1-.47 1.12M320.33 936.77a.87.87 0 1 1 .46-1.13.86.86 0 0 1-.46 1.13M320.9 939a.87.87 0 1 1 .47-1.13.87.87 0 0 1-.47 1.13M316.16 936.31a.87.87 0 1 1 .47-1.13.87.87 0 0 1-.47 1.13M313.74 934.06l1.1.58V933l-1.1.35a.52.52 0 0 0-.11-.1l.44-1.39h-1.59l.45 1.39-.1.1-1.09-.35v1.62l1.09-.58a.63.63 0 0 0 .11.12l-.63 1.9a1 1 0 0 0-.05.3 1 1 0 0 0 .88 1h.3a1 1 0 0 0 .87-1 1 1 0 0 0 0-.3l-.64-1.9a.46.46 0 0 0 .12-.12M313.28 943.38a40.32 40.32 0 0 1 5.82.4 11.32 11.32 0 0 1 1.73-4.17l-1.18-.42a2.18 2.18 0 0 1 0 1.27 2.38 2.38 0 0 1-.53-1.08l-.57 1.91a1.77 1.77 0 0 1 .93-.4c-.55 1.17-1.23 1.47-1.67 1.39a.84.84 0 0 1-.71-1c.13-.58.72-.73 1-.06.53-1.08-.37-1.42-.95-1.1a1.74 1.74 0 0 0 .27-2.62 1.86 1.86 0 0 0-.56 2.58c-.58-.67-1.49-.31-1.16.77.42-.65 1-.24.89.38s-.79 1-1.67.89c-1.27-.11-1.35-1-1.38-1.71.31-.06.88.23 1.36.9l.17-2a2 2 0 0 1-1.52.66 6 6 0 0 1 1-1.44H312a6 6 0 0 1 1 1.44 2 2 0 0 1-1.53-.66l.18 2c.48-.67 1-1 1.35-.9 0 .72-.1 1.6-1.37 1.71-.89.08-1.6-.35-1.67-.89s.47-1 .89-.38c.32-1.08-.58-1.44-1.17-.77a1.85 1.85 0 0 0-.56-2.58 1.75 1.75 0 0 0 .28 2.62c-.58-.32-1.48 0-.95 1.1.28-.67.87-.52 1 .06a.83.83 0 0 1-.7 1c-.44.08-1.12-.22-1.67-1.39a1.77 1.77 0 0 1 .93.4l-.58-1.91a2.29 2.29 0 0 1-.52 1.08 2.25 2.25 0 0 1 0-1.27l-1.18.42a11.13 11.13 0 0 1 1.74 4.17 40.21 40.21 0 0 1 5.82-.4" transform="translate(-95 -83)"/></g><path class="cls-1" d="M202 840.59h97.71v30H202z"/><path class="cls-2" d="M402 840.59h160v220H402z"/><path class="cls-3" d="M402 840.59h160v220H402z"/><path class="cls-4" d="M402 840.59h160v30H402z"/><text class="cls-6" transform="translate(412 887.94)">Form page</text><path class="cls-7" d="M412 1010.59h80v25h-80z"/><text class="cls-5" transform="translate(427.02 1026.44)">Continue</text><path class="cls-2" d="M412 900.59h110v15H412z"/><path class="cls-8" d="M412 900.59h110v15H412z"/><path class="cls-2" d="M412 920.59h110v40H412z"/><path class="cls-8" d="M412 920.59h110v40H412z"/><path class="cls-2" d="M412 965.59h110v15H412z"/><path class="cls-8" d="M412 965.59h110v15H412z"/><path class="cls-2" d="M412 985.59h110v15H412z"/><path class="cls-8" d="M412 985.59h110v15H412z"/><g clip-path="url(#clip-path-13)"><path class="cls-2" d="M475.27 860.5h2v-3.01l1.28-1.43 2.62 4.44h2.33l-3.66-5.96 3.43-3.94h-2.46l-3.54 4.29v-4.29h-2v9.9z"/></g><path class="cls-1" d="M402 840.59h97.71v30H402z"/><g clip-path="url(#clip-path-14)"><path class="cls-2" d="M563.47 941.7a1.77 1.77 0 0 1-.65-.38 1.84 1.84 0 0 1-.43-.66 2.58 2.58 0 0 1-.16-.93v-6.14h-2V940a3.59 3.59 0 0 0 .3 1.5 3.19 3.19 0 0 0 .84 1.14 3.82 3.82 0 0 0 1.28.73 4.9 4.9 0 0 0 1.61.25 5 5 0 0 0 1.62-.25 3.88 3.88 0 0 0 1.27-.73 3.29 3.29 0 0 0 .83-1.14 3.59 3.59 0 0 0 .3-1.5v-6.43h-2v6.14a2.58 2.58 0 0 1-.16.93 1.74 1.74 0 0 1-.44.66 1.65 1.65 0 0 1-.64.38 2.43 2.43 0 0 1-.82.13 2.37 2.37 0 0 1-.81-.13M556.24 942.88a1.18 1.18 0 0 0 .27.4 1.41 1.41 0 0 0 .4.27 1.37 1.37 0 0 0 .49.09 1.2 1.2 0 0 0 .88-.36 1.22 1.22 0 0 0 .38-.89 1.21 1.21 0 0 0-.1-.48 1.26 1.26 0 0 0-.28-.4 1.26 1.26 0 0 0-.88-.37 1.38 1.38 0 0 0-.49.1 1.41 1.41 0 0 0-.4.27 1.09 1.09 0 0 0-.27.4 1.06 1.06 0 0 0-.1.48 1.19 1.19 0 0 0 .1.49" transform="translate(-95 -83)"/><path class="cls-2" d="M458.06 860.5l2.79-9.9h-2.21l-1.88 7.44h-.06l-1.92-7.44h-2.24l2.79 9.9h2.73z"/><path class="cls-2" d="M540.06 933.86a4.46 4.46 0 0 0-1.48 1.08 4.64 4.64 0 0 0-.93 1.62 6.38 6.38 0 0 0 0 4 4.6 4.6 0 0 0 .93 1.61 4.35 4.35 0 0 0 1.48 1.09 4.87 4.87 0 0 0 2 .39 4.79 4.79 0 0 0 2-.39 4.29 4.29 0 0 0 1.49-1.09 4.6 4.6 0 0 0 .93-1.61 6.38 6.38 0 0 0 0-4 4.64 4.64 0 0 0-.93-1.62 4.4 4.4 0 0 0-1.49-1.08 4.79 4.79 0 0 0-2-.4 4.88 4.88 0 0 0-2 .4m.84 7.73a2.39 2.39 0 0 1-.83-.68 3.31 3.31 0 0 1-.51-1 4.87 4.87 0 0 1-.17-1.3v-.06a4.85 4.85 0 0 1 .17-1.29 3.2 3.2 0 0 1 .51-1 2.29 2.29 0 0 1 .83-.68 2.5 2.5 0 0 1 1.15-.25 2.45 2.45 0 0 1 1.14.25 2.29 2.29 0 0 1 .83.68 2.84 2.84 0 0 1 .51 1 4.47 4.47 0 0 1 .18 1.29v.06a4.49 4.49 0 0 1-.18 1.3 2.93 2.93 0 0 1-.51 1 2.39 2.39 0 0 1-.83.68 2.58 2.58 0 0 1-1.14.24 2.63 2.63 0 0 1-1.15-.24M529.14 938.51a5 5 0 0 1 .15-1.22 3.22 3.22 0 0 1 .49-1 2.32 2.32 0 0 1 .83-.72 2.47 2.47 0 0 1 1.2-.27 2.86 2.86 0 0 1 .8.11 2.53 2.53 0 0 1 .64.31 2.42 2.42 0 0 1 .49.47 3.25 3.25 0 0 1 .37.59l1.76-1a3.82 3.82 0 0 0-.65-1 4.07 4.07 0 0 0-.92-.72 4.26 4.26 0 0 0-1.16-.46 5.21 5.21 0 0 0-1.33-.17 4.77 4.77 0 0 0-2 .4 4.5 4.5 0 0 0-1.49 1.08 4.85 4.85 0 0 0-1 1.62 5.66 5.66 0 0 0-.34 2 6.45 6.45 0 0 0 .3 2 4.65 4.65 0 0 0 .88 1.61 4 4 0 0 0 1.42 1.09 4.51 4.51 0 0 0 1.92.39 3.6 3.6 0 0 0 .88-.1 3.49 3.49 0 0 0 .75-.26 3 3 0 0 0 .63-.41 2.58 2.58 0 0 0 .46-.53v1.16h1.75v-5.42h-4.48v1.52h2.53v.1a2.55 2.55 0 0 1-.1.69 1.81 1.81 0 0 1-.38.69 1.89 1.89 0 0 1-.71.54 2.59 2.59 0 0 1-1.11.21 2.47 2.47 0 0 1-1.2-.27 2.32 2.32 0 0 1-.83-.72 3.22 3.22 0 0 1-.49-1 4.91 4.91 0 0 1-.15-1.22zM508.2 935.61a.87.87 0 1 0-.47-1.12.86.86 0 0 0 .47 1.12M506.23 936.77a.87.87 0 1 0-.47-1.13.88.88 0 0 0 .47 1.13M505.65 939a.88.88 0 0 0 1.14-.47.86.86 0 0 0-.47-1.14.87.87 0 0 0-.67 1.61M510.4 936.31a.87.87 0 1 0-.47-1.13.87.87 0 0 0 .47 1.13M518.36 935.61a.86.86 0 0 1-1.14-.46.87.87 0 1 1 1.61-.66.86.86 0 0 1-.47 1.12M520.33 936.77a.87.87 0 1 1 .46-1.13.86.86 0 0 1-.46 1.13M520.9 939a.87.87 0 1 1 .47-1.13.87.87 0 0 1-.47 1.13M516.16 936.31a.87.87 0 1 1 .47-1.13.87.87 0 0 1-.47 1.13M513.74 934.06l1.1.58V933l-1.1.35a.52.52 0 0 0-.11-.1l.44-1.39h-1.59l.45 1.39-.1.1-1.09-.35v1.62l1.09-.58a.63.63 0 0 0 .11.12l-.63 1.9a1 1 0 0 0 0 .3 1 1 0 0 0 .88 1h.3a1 1 0 0 0 .87-1 1 1 0 0 0 0-.3l-.64-1.9a.68.68 0 0 0 .12-.12M513.28 943.38a40.32 40.32 0 0 1 5.82.4 11.32 11.32 0 0 1 1.73-4.17l-1.18-.42a2.18 2.18 0 0 1 0 1.27 2.38 2.38 0 0 1-.53-1.08l-.57 1.91a1.77 1.77 0 0 1 .93-.4c-.55 1.17-1.23 1.47-1.67 1.39a.84.84 0 0 1-.71-1c.13-.58.72-.73 1-.06.53-1.08-.37-1.42-1-1.1a1.74 1.74 0 0 0 .27-2.62 1.86 1.86 0 0 0-.56 2.58c-.58-.67-1.49-.31-1.16.77.42-.65 1-.24.89.38s-.79 1-1.67.89c-1.27-.11-1.35-1-1.38-1.71.31-.06.88.23 1.36.9l.17-2a2 2 0 0 1-1.52.66 6 6 0 0 1 1-1.44H512a6 6 0 0 1 1 1.44 2 2 0 0 1-1.53-.66l.18 2c.48-.67 1-1 1.35-.9 0 .72-.1 1.6-1.37 1.71-.89.08-1.6-.35-1.67-.89s.47-1 .89-.38c.32-1.08-.58-1.44-1.17-.77a1.85 1.85 0 0 0-.56-2.58 1.75 1.75 0 0 0 .28 2.62c-.58-.32-1.48 0-.95 1.1.28-.67.87-.52 1 .06a.83.83 0 0 1-.7 1c-.44.08-1.12-.22-1.67-1.39a1.77 1.77 0 0 1 .93.4l-.58-1.91a2.29 2.29 0 0 1-.52 1.08 2.25 2.25 0 0 1 0-1.27l-1.18.42a11.13 11.13 0 0 1 1.74 4.17 40.21 40.21 0 0 1 5.82-.4" transform="translate(-95 -83)"/></g><path class="cls-1" d="M402 840.59h97.71v30H402z"/><path class="cls-2" d="M602 840.59h160v220H602z"/><path class="cls-3" d="M602 840.59h160v220H602z"/><path class="cls-9" d="M612 880.59h120v70H612z"/><text class="cls-5" transform="translate(636.18 910.28)">Confirm<tspan class="cls-10" x="44.04" y="0">a</tspan><tspan x="49.99" y="0">tion</tspan></text><text class="cls-5" transform="translate(658.66 927.59)">page</text><path class="cls-11" d="M612 960.59h120M612 971.93h85.71M612 983.26h120M612 994.59h85.71"/><path d="M602 840.59h160v30H602z"/><g clip-path="url(#clip-path-15)"><path class="cls-2" d="M675.27 860.5h2v-3.01l1.28-1.43 2.62 4.44h2.33l-3.66-5.96 3.43-3.94h-2.46l-3.54 4.29v-4.29h-2v9.9z"/></g><path class="cls-1" d="M602 840.59h97.71v30H602z"/><g clip-path="url(#clip-path-16)"><path class="cls-2" d="M763.47 941.7a1.77 1.77 0 0 1-.65-.38 1.84 1.84 0 0 1-.43-.66 2.58 2.58 0 0 1-.16-.93v-6.14h-2V940a3.59 3.59 0 0 0 .3 1.5 3.19 3.19 0 0 0 .84 1.14 3.82 3.82 0 0 0 1.28.73 4.9 4.9 0 0 0 1.61.25 5 5 0 0 0 1.62-.25 3.88 3.88 0 0 0 1.27-.73 3.17 3.17 0 0 0 .83-1.14 3.59 3.59 0 0 0 .3-1.5v-6.43h-2v6.14a2.58 2.58 0 0 1-.16.93 1.74 1.74 0 0 1-.44.66 1.65 1.65 0 0 1-.64.38 2.43 2.43 0 0 1-.82.13 2.37 2.37 0 0 1-.81-.13M756.24 942.88a1.18 1.18 0 0 0 .27.4 1.41 1.41 0 0 0 .4.27 1.37 1.37 0 0 0 .49.09 1.2 1.2 0 0 0 .88-.36 1.22 1.22 0 0 0 .38-.89 1.21 1.21 0 0 0-.1-.48 1.26 1.26 0 0 0-.28-.4 1.26 1.26 0 0 0-.88-.37 1.38 1.38 0 0 0-.49.1 1.41 1.41 0 0 0-.4.27 1.09 1.09 0 0 0-.27.4 1.06 1.06 0 0 0-.1.48 1.19 1.19 0 0 0 .1.49" transform="translate(-95 -83)"/><path class="cls-2" d="M658.06 860.5l2.79-9.9h-2.21l-1.88 7.44h-.06l-1.92-7.44h-2.24l2.8 9.9h2.72z"/><path class="cls-2" d="M740.06 933.86a4.46 4.46 0 0 0-1.48 1.08 4.64 4.64 0 0 0-.93 1.62 6.38 6.38 0 0 0 0 4 4.6 4.6 0 0 0 .93 1.61 4.35 4.35 0 0 0 1.48 1.09 4.87 4.87 0 0 0 2 .39 4.79 4.79 0 0 0 2-.39 4.29 4.29 0 0 0 1.49-1.09 4.6 4.6 0 0 0 .93-1.61 6.38 6.38 0 0 0 0-4 4.64 4.64 0 0 0-.93-1.62 4.4 4.4 0 0 0-1.49-1.08 4.79 4.79 0 0 0-2-.4 4.88 4.88 0 0 0-2 .4m.84 7.73a2.39 2.39 0 0 1-.83-.68 3.31 3.31 0 0 1-.51-1 4.87 4.87 0 0 1-.17-1.3v-.06a4.85 4.85 0 0 1 .17-1.29 3.2 3.2 0 0 1 .51-1 2.29 2.29 0 0 1 .83-.68 2.5 2.5 0 0 1 1.15-.25 2.45 2.45 0 0 1 1.14.25 2.29 2.29 0 0 1 .83.68 2.84 2.84 0 0 1 .51 1 4.47 4.47 0 0 1 .18 1.29v.06a4.49 4.49 0 0 1-.18 1.3 2.93 2.93 0 0 1-.51 1 2.39 2.39 0 0 1-.83.68 2.58 2.58 0 0 1-1.14.24 2.63 2.63 0 0 1-1.15-.24M729.14 938.51a5 5 0 0 1 .15-1.22 3.22 3.22 0 0 1 .49-1 2.32 2.32 0 0 1 .83-.72 2.47 2.47 0 0 1 1.2-.27 2.86 2.86 0 0 1 .8.11 2.53 2.53 0 0 1 .64.31 2.42 2.42 0 0 1 .49.47 3.25 3.25 0 0 1 .37.59l1.76-1a3.82 3.82 0 0 0-.65-1 4.07 4.07 0 0 0-.92-.72 4.26 4.26 0 0 0-1.16-.46 5.21 5.21 0 0 0-1.33-.17 4.77 4.77 0 0 0-2 .4 4.5 4.5 0 0 0-1.49 1.08 4.85 4.85 0 0 0-1 1.62 5.66 5.66 0 0 0-.34 2 6.45 6.45 0 0 0 .3 2 4.65 4.65 0 0 0 .88 1.61 4 4 0 0 0 1.42 1.09 4.51 4.51 0 0 0 1.92.39 3.6 3.6 0 0 0 .88-.1 3.49 3.49 0 0 0 .75-.26 3 3 0 0 0 .63-.41 2.58 2.58 0 0 0 .46-.53v1.16h1.75v-5.42h-4.48v1.52h2.53v.1a2.55 2.55 0 0 1-.1.69 1.81 1.81 0 0 1-.38.69 1.89 1.89 0 0 1-.71.54 2.59 2.59 0 0 1-1.11.21 2.47 2.47 0 0 1-1.2-.27 2.32 2.32 0 0 1-.83-.72 3.22 3.22 0 0 1-.49-1 4.91 4.91 0 0 1-.15-1.22zM708.2 935.61a.87.87 0 1 0-.47-1.12.86.86 0 0 0 .47 1.12M706.23 936.77a.87.87 0 1 0-.47-1.13.88.88 0 0 0 .47 1.13M705.65 939a.88.88 0 0 0 1.14-.47.86.86 0 0 0-.47-1.14.87.87 0 0 0-.67 1.61M710.4 936.31a.87.87 0 1 0-.47-1.13.87.87 0 0 0 .47 1.13M718.36 935.61a.86.86 0 0 1-1.14-.46.87.87 0 1 1 1.61-.66.86.86 0 0 1-.47 1.12M720.33 936.77a.87.87 0 1 1 .46-1.13.86.86 0 0 1-.46 1.13M720.9 939a.87.87 0 1 1 .47-1.13.87.87 0 0 1-.47 1.13M716.16 936.31a.87.87 0 1 1 .47-1.13.87.87 0 0 1-.47 1.13M713.74 934.06l1.1.58V933l-1.1.35a.52.52 0 0 0-.11-.1l.44-1.39h-1.59l.45 1.39-.1.1-1.09-.35v1.62l1.09-.58a.63.63 0 0 0 .11.12l-.63 1.9a1 1 0 0 0 0 .3 1 1 0 0 0 .88 1h.3a1 1 0 0 0 .87-1 1 1 0 0 0 0-.3l-.64-1.9a.46.46 0 0 0 .12-.12M713.28 943.38a40.32 40.32 0 0 1 5.82.4 11.32 11.32 0 0 1 1.73-4.17l-1.18-.42a2.18 2.18 0 0 1 0 1.27 2.38 2.38 0 0 1-.53-1.08l-.57 1.91a1.77 1.77 0 0 1 .93-.4c-.55 1.17-1.23 1.47-1.67 1.39a.84.84 0 0 1-.71-1c.13-.58.72-.73 1-.06.53-1.08-.37-1.42-1-1.1a1.74 1.74 0 0 0 .27-2.62 1.86 1.86 0 0 0-.56 2.58c-.58-.67-1.49-.31-1.16.77.42-.65 1-.24.89.38s-.79 1-1.67.89c-1.27-.11-1.35-1-1.38-1.71.31-.06.88.23 1.36.9l.17-2a2 2 0 0 1-1.52.66 6 6 0 0 1 1-1.44H712a6 6 0 0 1 1 1.44 2 2 0 0 1-1.53-.66l.18 2c.48-.67 1-1 1.35-.9 0 .72-.1 1.6-1.37 1.71-.89.08-1.6-.35-1.67-.89s.47-1 .89-.38c.32-1.08-.58-1.44-1.17-.77a1.85 1.85 0 0 0-.56-2.58 1.75 1.75 0 0 0 .28 2.62c-.58-.32-1.48 0-.95 1.1.28-.67.87-.52 1 .06a.83.83 0 0 1-.7 1c-.44.08-1.12-.22-1.67-1.39a1.77 1.77 0 0 1 .93.4l-.58-1.91a2.39 2.39 0 0 1-.52 1.08 2.25 2.25 0 0 1 0-1.27l-1.18.42a11.13 11.13 0 0 1 1.74 4.17 40.21 40.21 0 0 1 5.82-.4" transform="translate(-95 -83)"/></g><path class="cls-1" d="M602 840.59h97.71v30H602z"/><path stroke-linecap="round" stroke-linejoin="round" stroke="#0a0c0c" stroke-width="4" fill="none" d="M602 80.59h141.1"/><path fill="#0a0c0c" d="M755.9 80.59l-12.8-4.8v9.6l12.8-4.8z"/><path stroke="#0a0c0c" stroke-width="4" stroke-miterlimit="10" fill="none" d="M755.9 80.59l-12.8-4.8v9.6l12.8-4.8z"/><path class="cls-4" d="M1020.54 123.05a30.19 30.19 0 0 1 0 42.42 29.5 29.5 0 0 1-42 0 30.19 30.19 0 0 1 0-42.42 29.5 29.5 0 0 1 42 0" transform="translate(-95 -83)"/><text class="cls-44" transform="translate(878.28 107.59)">text-colour</text><path d="M1160.54 123.05a30.19 30.19 0 0 1 0 42.42 29.5 29.5 0 0 1-42 0 30.19 30.19 0 0 1 0-42.42 29.5 29.5 0 0 1 42 0" transform="translate(-95 -83)" fill="#6f777b"/><text class="cls-44" transform="translate(987.94 107.59)">secondary-text-colour</text><path class="cls-23" d="M1300.54 123.05a30.19 30.19 0 0 1 0 42.42 29.5 29.5 0 0 1-42 0 30.19 30.19 0 0 1 0-42.42 29.5 29.5 0 0 1 42 0" transform="translate(-95 -83)"/><text class="cls-44" transform="translate(1159.28 107.59)">link-colour</text><path d="M1440.54 123.05a30.19 30.19 0 0 1 0 42.42 29.5 29.5 0 0 1-42 0 30.19 30.19 0 0 1 0-42.42 29.5 29.5 0 0 1 42 0" transform="translate(-95 -83)" fill="#238ac5"/><text class="cls-44" transform="translate(1282.27 107.59)">link-hove<tspan x="48.9" y="0" letter-spacing="-.05em">r</tspan><tspan x="52.25" y="0">-colour</tspan></text><path d="M1020 238.05a30.19 30.19 0 0 1 0 42.42 29.5 29.5 0 0 1-42 0 30.19 30.19 0 0 1 0-42.42 29.5 29.5 0 0 1 42 0" transform="translate(-95 -83)" fill="#4c2793"/><text class="cls-44" transform="translate(859.11 222.59)">link-visited-colour</text><path class="cls-22" d="M1160 238.05a30.19 30.19 0 0 1 0 42.42 29.5 29.5 0 0 1-42 0 30.19 30.19 0 0 1 0-42.42 29.5 29.5 0 0 1 42 0" transform="translate(-95 -83)"/><text class="cls-44" transform="translate(1010.55 222.59)">bo<tspan class="cls-49" x="14" y="0">r</tspan><tspan class="cls-50" x="17.8" y="0">de</tspan><tspan x="31.36" y="0" letter-spacing="-.06em">r</tspan><tspan x="34.69" y="0">-colour</tspan></text><path d="M1300 238.05a30.19 30.19 0 0 1 0 42.42 29.5 29.5 0 0 1-42 0 30.19 30.19 0 0 1 0-42.42 29.5 29.5 0 0 1 42 0" transform="translate(-95 -83)" fill="#fdbf38"/><text class="cls-44" transform="translate(1153.11 222.59)">focus-colour</text><path class="cls-23" d="M1440 238.05a30.19 30.19 0 0 1 0 42.42 29.5 29.5 0 0 1-42 0 30.19 30.19 0 0 1 0-42.42 29.5 29.5 0 0 1 42 0" transform="translate(-95 -83)"/><text class="cls-44" transform="translate(1291.55 222.59)">govuk-colour</text><path class="cls-12" d="M1022.54 353.05a30.19 30.19 0 0 1 0 42.42 29.5 29.5 0 0 1-42 0 30.19 30.19 0 0 1 0-42.42 29.5 29.5 0 0 1 42 0" transform="translate(-95 -83)"/><text class="cls-44" transform="translate(878.17 337.59)">er<tspan class="cls-49" x="10.44" y="0">r</tspan><tspan x="14.23" y="0">o</tspan><tspan x="21.12" y="0" letter-spacing="-.05em">r</tspan><tspan x="24.47" y="0">-colour</tspan></text><path class="cls-4" d="M1020.54 543.05a30.19 30.19 0 0 1 0 42.42 29.5 29.5 0 0 1-42 0 30.19 30.19 0 0 1 0-42.42 29.5 29.5 0 0 1 42 0" transform="translate(-95 -83)"/><text class="cls-44" transform="translate(893.05 527.59)">black</text><path d="M1160.54 543.05a30.19 30.19 0 0 1 0 42.42 29.5 29.5 0 0 1-42 0 30.19 30.19 0 0 1 0-42.42 29.5 29.5 0 0 1 42 0" transform="translate(-95 -83)" fill="#6d7579"/><text class="cls-44" transform="translate(1029.16 527.59)">G<tspan class="cls-49" x="9.11" y="0">r</tspan><tspan class="cls-55" x="12.9" y="0">ey-1</tspan></text><path class="cls-22" d="M1300.54 543.05a30.19 30.19 0 0 1 0 42.42 29.5 29.5 0 0 1-42 0 30.19 30.19 0 0 1 0-42.42 29.5 29.5 0 0 1 42 0" transform="translate(-95 -83)"/><text class="cls-44" transform="translate(1170.27 527.59)">g<tspan class="cls-49" x="6.89" y="0">r</tspan><tspan class="cls-55" x="10.68" y="0">ey-2</tspan></text><path d="M1441 543.05a30.19 30.19 0 0 1 0 42.42 29.5 29.5 0 0 1-42 0 30.19 30.19 0 0 1 0-42.42 29.5 29.5 0 0 1 42 0" transform="translate(-95 -83)" fill="#dddfe1"/><text class="cls-44" transform="translate(1310.77 527.59)">g<tspan class="cls-49" x="6.89" y="0">r</tspan><tspan class="cls-55" x="10.68" y="0">ey-3</tspan></text><path d="M1020.73 638.05a30.19 30.19 0 0 1 0 42.42 29.52 29.52 0 0 1-42 0 30.2 30.2 0 0 1 0-42.42 29.52 29.52 0 0 1 42 0" transform="translate(-95 -83)" fill="#f7f7f7"/><text class="cls-44" transform="translate(890.46 622.59)">g<tspan class="cls-49" x="6.89" y="0">r</tspan><tspan class="cls-55" x="10.68" y="0">ey-4</tspan></text><path class="cls-2" d="M1160.73 638.05a30.19 30.19 0 0 1 0 42.42 29.52 29.52 0 0 1-42 0 30.2 30.2 0 0 1 0-42.42 29.52 29.52 0 0 1 42 0" transform="translate(-95 -83)"/><text class="cls-44" transform="translate(1033.36 622.59)">white</text><path class="cls-12" d="M1017.85 823.05a30.19 30.19 0 0 1 0 42.42 29.5 29.5 0 0 1-42 0 30.19 30.19 0 0 1 0-42.42 29.5 29.5 0 0 1 42 0" transform="translate(-95 -83)"/><text class="cls-44" transform="translate(896.14 807.59)"><tspan class="cls-58">r</tspan><tspan x="3.78" y="0">ed</tspan></text><path d="M1157.85 823.05a30.19 30.19 0 0 1 0 42.42 29.5 29.5 0 0 1-42 0 30.19 30.19 0 0 1 0-42.42 29.5 29.5 0 0 1 42 0" transform="translate(-95 -83)" fill="#e12d2d"/><text class="cls-44" transform="translate(1018.25 807.59)">bright-<tspan class="cls-58" x="35.78" y="0">r</tspan><tspan x="39.56" y="0">ed</tspan></text><path d="M1297.85 823.05a30.19 30.19 0 0 1 0 42.42 29.5 29.5 0 0 1-42 0 30.19 30.19 0 0 1 0-42.42 29.5 29.5 0 0 1 42 0" transform="translate(-95 -83)" fill="#f5772c"/><text class="cls-44" transform="translate(1166.15 807.59)">orange</text><path d="M1437.85 823.05a30.19 30.19 0 0 1 0 42.42 29.5 29.5 0 0 1-42 0 30.19 30.19 0 0 1 0-42.42 29.5 29.5 0 0 1 42 0" transform="translate(-95 -83)" fill="#b48740"/><text class="cls-44" transform="translate(1308.03 807.59)">b<tspan class="cls-49" x="7.12" y="0">r</tspan><tspan x="10.91" y="0">own</tspan></text><path d="M1017.54 928.05a30.19 30.19 0 0 1 0 42.42 29.5 29.5 0 0 1-42 0 30.19 30.19 0 0 1 0-42.42 29.5 29.5 0 0 1 42 0" transform="translate(-95 -83)" fill="#ffbe47"/><text class="cls-44" transform="translate(887.62 912.59)">yellow</text><path d="M1157.54 928.05a30.19 30.19 0 0 1 0 42.42 29.5 29.5 0 0 1-42 0 30.19 30.19 0 0 1 0-42.42 29.5 29.5 0 0 1 42 0" transform="translate(-95 -83)" fill="#84984b"/><text class="cls-44" transform="translate(1015.72 912.59)">light-g<tspan x="34.22" y="0" letter-spacing="-.02em">r</tspan><tspan class="cls-55" x="38" y="0">een</tspan></text><path class="cls-7" d="M1297.54 928.05a30.19 30.19 0 0 1 0 42.42 29.5 29.5 0 0 1-42 0 30.19 30.19 0 0 1 0-42.42 29.5 29.5 0 0 1 42 0" transform="translate(-95 -83)"/><text class="cls-44" transform="translate(1169.39 912.59)">g<tspan class="cls-49" x="6.89" y="0">r</tspan><tspan class="cls-55" x="10.68" y="0">een</tspan></text><path class="cls-9" d="M1437.54 928.05a30.19 30.19 0 0 1 0 42.42 29.5 29.5 0 0 1-42 0 30.19 30.19 0 0 1 0-42.42 29.5 29.5 0 0 1 42 0" transform="translate(-95 -83)"/><text class="cls-44" transform="translate(1299.49 912.59)">tu<tspan class="cls-49" x="10.45" y="0">r</tspan><tspan class="cls-50" x="14.24" y="0">quoise</tspan></text><path d="M1017.54 1028.05a30.19 30.19 0 0 1 0 42.42 29.5 29.5 0 0 1-42 0 30.19 30.19 0 0 1 0-42.42 29.5 29.5 0 0 1 42 0" transform="translate(-95 -83)" fill="#2b8bc3"/><text class="cls-44" transform="translate(879.38 1012.59)">light-blue</text><path d="M1157.54 1028.05a30.19 30.19 0 0 1 0 42.42 29.5 29.5 0 0 1-42 0 30.19 30.19 0 0 1 0-42.42 29.5 29.5 0 0 1 42 0" transform="translate(-95 -83)" fill="#005ea4"/><text class="cls-44" transform="translate(1033.05 1012.59)">blue</text><path d="M1297.54 1028.05a30.19 30.19 0 0 1 0 42.42 29.5 29.5 0 0 1-42 0 30.19 30.19 0 0 1 0-42.42 29.5 29.5 0 0 1 42 0" transform="translate(-95 -83)" fill="#6f72ae"/><text class="cls-44" transform="translate(1153.83 1012.59)">light-purple</text><path d="M1437.54 1028.05a30.19 30.19 0 0 1 0 42.42 29.5 29.5 0 0 1-42 0 30.19 30.19 0 0 1 0-42.42 29.5 29.5 0 0 1 42 0" transform="translate(-95 -83)" fill="#2e358a"/><text class="cls-44" transform="translate(1307.5 1012.59)">purple</text><path d="M1019.85 1128.05a30.19 30.19 0 0 1 0 42.42 29.5 29.5 0 0 1-42 0 30.19 30.19 0 0 1 0-42.42 29.5 29.5 0 0 1 42 0" transform="translate(-95 -83)" fill="#902b87"/><text class="cls-44" transform="translate(871.91 1112.59)">bright-purple</text><path d="M1159.85 1128.05a30.19 30.19 0 0 1 0 42.42 29.5 29.5 0 0 1-42 0 30.19 30.19 0 0 1 0-42.42 29.5 29.5 0 0 1 42 0" transform="translate(-95 -83)" fill="#d43880"/><text class="cls-44" transform="translate(1035.47 1112.59)">pink</text><path d="M1299.85 1128.05a30.19 30.19 0 0 1 0 42.42 29.5 29.5 0 0 1-42 0 30.19 30.19 0 0 1 0-42.42 29.5 29.5 0 0 1 42 0" transform="translate(-95 -83)" fill="#f398bd"/><text class="cls-44" transform="translate(1161.8 1112.59)">light-pink</text><text class="cls-72" transform="translate(880 17)"><tspan letter-spacing="-.06em">T</tspan><tspan x="10" y="0">ext colours</tspan></text><text class="cls-72" transform="translate(880 437)">Greys</text><text class="cls-72" transform="translate(876.81 716)">Extended colours</text></svg>